<?xml version="1.0" standalone="no"?>
<!DOCTYPE svg PUBLIC "-//W3C//DTD SVG 20010904//EN"
 "http://www.w3.org/TR/2001/REC-SVG-20010904/DTD/svg10.dtd">
<svg version="1.0" xmlns="http://www.w3.org/2000/svg"
 width="800.000000pt" height="800.000000pt" viewBox="0 0 800.000000 800.000000"
 preserveAspectRatio="xMidYMid meet">
<metadata>
Created by potrace 1.11, written by Peter Selinger 2001-2013
</metadata>
<g transform="translate(0.000000,800.000000) scale(0.100000,-0.100000)"
fill="#000000" stroke="none">
<path d="M414 6078 c-3 -4 55 -78 128 -165 73 -86 161 -190 196 -232 35 -42
73 -87 85 -101 12 -14 45 -52 73 -85 90 -107 837 -979 865 -1010 30 -35 111
-127 369 -425 219 -252 215 -248 242 -280 43 -50 133 -155 138 -160 3 -3 32
-36 65 -75 33 -38 62 -72 65 -75 3 -3 46 -52 95 -110 49 -58 100 -116 111
-130 12 -14 106 -124 209 -245 209 -246 262 -308 320 -375 22 -25 58 -68 80
-94 22 -27 45 -54 50 -60 6 -6 80 -92 164 -191 84 -99 165 -193 180 -210 14
-16 49 -57 76 -90 28 -33 63 -74 79 -92 l29 -33 142 0 143 0 103 127 c267 331
1492 1852 1599 1987 8 10 27 33 41 50 55 66 1488 1856 1530 1912 6 7 -39 10
-154 8 -222 -3 -874 -14 -1087 -19 -212 -5 -908 -17 -1039 -19 l-94 -1 -136
-170 c-171 -215 -351 -442 -567 -714 -93 -117 -215 -270 -271 -340 -98 -122
-100 -127 -83 -145 20 -20 14 -25 103 78 10 12 28 32 40 46 12 14 80 93 152
175 71 83 134 155 140 161 5 6 30 35 55 64 25 29 50 58 55 64 6 6 37 43 70 81
33 39 62 72 65 75 3 3 36 41 75 85 38 44 76 87 85 96 8 9 73 85 143 167 l129
151 241 -4 c133 -3 352 -7 487 -10 135 -2 407 -7 605 -11 337 -6 546 -11 553
-13 2 -1 -235 -280 -337 -396 -15 -16 -163 -190 -331 -385 -167 -195 -306
-357 -310 -360 -3 -3 -30 -34 -60 -70 -30 -36 -57 -67 -60 -70 -3 -3 -41 -48
-85 -100 -44 -52 -87 -101 -95 -110 -8 -9 -38 -43 -66 -75 -175 -206 -252
-295 -283 -330 -20 -23 -58 -68 -86 -100 -27 -33 -66 -78 -86 -100 -19 -22
-118 -137 -220 -255 -101 -118 -188 -220 -194 -226 -5 -6 -32 -37 -60 -70 -27
-32 -90 -106 -140 -164 -49 -58 -100 -116 -111 -130 -12 -14 -68 -79 -124
-145 -56 -66 -114 -134 -129 -150 -14 -17 -51 -59 -81 -95 -30 -36 -60 -71
-67 -77 -6 -7 -21 -25 -32 -39 -12 -15 -23 -25 -24 -23 -2 2 -57 70 -123 152
-65 81 -132 165 -149 186 -27 35 -434 538 -460 568 -5 7 -15 18 -20 25 -129
162 -344 428 -358 443 -10 11 -37 45 -60 75 -23 30 -45 57 -48 60 -3 3 -198
246 -433 540 -235 294 -435 544 -444 555 -10 11 -31 38 -47 60 -17 22 -34 45
-40 51 -5 6 -22 26 -37 45 -14 19 -117 146 -227 284 -110 137 -199 251 -198
252 2 1 83 3 180 4 164 2 179 1 196 -17 10 -10 76 -86 147 -169 71 -82 131
-152 134 -155 3 -3 64 -72 135 -155 71 -82 131 -152 135 -155 3 -3 48 -54 100
-115 52 -60 109 -126 126 -145 17 -19 89 -100 159 -180 70 -80 157 -178 194
-219 36 -41 74 -83 84 -95 41 -47 83 -94 131 -146 28 -31 69 -76 91 -100 22
-25 96 -108 165 -185 69 -77 134 -149 145 -161 11 -12 61 -66 110 -120 98
-107 195 -214 260 -284 22 -25 69 -75 103 -112 l62 -67 188 252 c103 139 242
326 309 417 139 191 338 458 356 480 7 8 59 82 117 164 58 82 120 169 138 195
18 25 136 194 262 376 219 314 228 330 212 348 -16 18 -21 14 -127 -96 -97
-101 -321 -336 -416 -438 -160 -171 -247 -265 -262 -283 -10 -11 -60 -66 -111
-121 -51 -55 -144 -156 -206 -225 -62 -69 -150 -165 -196 -215 -45 -49 -107
-117 -136 -149 -132 -148 -137 -152 -148 -134 -6 9 -16 23 -23 30 -7 7 -33 40
-57 73 -54 73 -372 478 -380 485 -3 3 -19 23 -36 45 -16 22 -82 107 -147 190
-139 176 -119 150 -378 475 -112 140 -209 262 -216 270 -6 8 -27 33 -45 56
-18 22 -46 57 -63 78 -62 79 -209 262 -234 291 -14 17 -42 51 -61 75 -28 35
-228 279 -298 365 -10 11 -35 42 -56 68 l-40 49 -859 -4 c-472 -1 -861 -6
-863 -10z"/>
</g>
</svg>
