<?xml version="1.0" encoding="UTF-8" standalone="no"?>
<!DOCTYPE svg PUBLIC "-//W3C//DTD SVG 1.1//EN"
 "http://www.w3.org/Graphics/SVG/1.1/DTD/svg11.dtd">
<!-- Generated by graphviz version 2.44.1 (20200629.0846)
 -->
<!-- Title: G Pages: 1 -->
<svg width="655pt" height="188pt"
 viewBox="0.00 0.00 654.93 188.00" xmlns="http://www.w3.org/2000/svg" xmlns:xlink="http://www.w3.org/1999/xlink">
<g id="graph0" class="graph" transform="scale(1 1) rotate(0) translate(4 184)">
<title>G</title>
<polygon fill="white" stroke="transparent" points="-4,4 -4,-184 650.93,-184 650.93,4 -4,4"/>
<!-- ProcessPodcast -->
<g id="node1" class="node">
<title>ProcessPodcast</title>
<ellipse fill="none" stroke="black" cx="313.49" cy="-162" rx="64.99" ry="18"/>
<text text-anchor="middle" x="313.49" y="-158.3" font-family="Times,serif" font-size="14.00">ProcessPodcast</text>
</g>
<!-- ReleaseOnTransistorFM -->
<g id="node2" class="node">
<title>ReleaseOnTransistorFM</title>
<ellipse fill="none" stroke="black" cx="97.49" cy="-90" rx="97.48" ry="18"/>
<text text-anchor="middle" x="97.49" y="-86.3" font-family="Times,serif" font-size="14.00">ReleaseOnTransistorFM</text>
</g>
<!-- ProcessPodcast&#45;&gt;ReleaseOnTransistorFM -->
<g id="edge1" class="edge">
<title>ProcessPodcast&#45;&gt;ReleaseOnTransistorFM</title>
<path fill="none" stroke="black" d="M272.86,-147.83C239.1,-136.89 190.7,-121.21 153.3,-109.09"/>
<polygon fill="black" stroke="black" points="154.15,-105.68 143.55,-105.93 151.99,-112.34 154.15,-105.68"/>
</g>
<!-- ReleaseOnApplePodcasts -->
<g id="node3" class="node">
<title>ReleaseOnApplePodcasts</title>
<ellipse fill="none" stroke="black" cx="313.49" cy="-90" rx="100.98" ry="18"/>
<text text-anchor="middle" x="313.49" y="-86.3" font-family="Times,serif" font-size="14.00">ReleaseOnApplePodcasts</text>
</g>
<!-- ProcessPodcast&#45;&gt;ReleaseOnApplePodcasts -->
<g id="edge2" class="edge">
<title>ProcessPodcast&#45;&gt;ReleaseOnApplePodcasts</title>
<path fill="none" stroke="black" d="M313.49,-143.7C313.49,-135.98 313.49,-126.71 313.49,-118.11"/>
<polygon fill="black" stroke="black" points="316.99,-118.1 313.49,-108.1 309.99,-118.1 316.99,-118.1"/>
</g>
<!-- CreateAudioTranscription -->
<g id="node4" class="node">
<title>CreateAudioTranscription</title>
<ellipse fill="none" stroke="black" cx="534.49" cy="-90" rx="102.88" ry="18"/>
<text text-anchor="middle" x="534.49" y="-86.3" font-family="Times,serif" font-size="14.00">CreateAudioTranscription</text>
</g>
<!-- ProcessPodcast&#45;&gt;CreateAudioTranscription -->
<g id="edge3" class="edge">
<title>ProcessPodcast&#45;&gt;CreateAudioTranscription</title>
<path fill="none" stroke="black" d="M354.54,-148C389.03,-137.07 438.7,-121.34 477.13,-109.17"/>
<polygon fill="black" stroke="black" points="478.66,-112.35 487.14,-106 476.55,-105.68 478.66,-112.35"/>
</g>
<!-- SendTweetAboutNewPodcast -->
<g id="node7" class="node">
<title>SendTweetAboutNewPodcast</title>
<ellipse fill="none" stroke="black" cx="192.49" cy="-18" rx="116.18" ry="18"/>
<text text-anchor="middle" x="192.49" y="-14.3" font-family="Times,serif" font-size="14.00">SendTweetAboutNewPodcast</text>
</g>
<!-- ReleaseOnTransistorFM&#45;&gt;SendTweetAboutNewPodcast -->
<g id="edge7" class="edge">
<title>ReleaseOnTransistorFM&#45;&gt;SendTweetAboutNewPodcast</title>
<path fill="none" stroke="black" d="M120.01,-72.41C132.46,-63.24 148.11,-51.7 161.68,-41.71"/>
<polygon fill="black" stroke="black" points="163.84,-44.46 169.81,-35.71 159.68,-38.83 163.84,-44.46"/>
</g>
<!-- ReleaseOnApplePodcasts&#45;&gt;SendTweetAboutNewPodcast -->
<g id="edge8" class="edge">
<title>ReleaseOnApplePodcasts&#45;&gt;SendTweetAboutNewPodcast</title>
<path fill="none" stroke="black" d="M285.12,-72.59C268.7,-63.09 247.84,-51.02 230.07,-40.74"/>
<polygon fill="black" stroke="black" points="231.51,-37.53 221.1,-35.55 228.01,-43.59 231.51,-37.53"/>
</g>
<!-- TranslateAudioTranscription -->
<g id="node6" class="node">
<title>TranslateAudioTranscription</title>
<ellipse fill="none" stroke="black" cx="534.49" cy="-18" rx="112.38" ry="18"/>
<text text-anchor="middle" x="534.49" y="-14.3" font-family="Times,serif" font-size="14.00">TranslateAudioTranscription</text>
</g>
<!-- CreateAudioTranscription&#45;&gt;TranslateAudioTranscription -->
<g id="edge6" class="edge">
<title>CreateAudioTranscription&#45;&gt;TranslateAudioTranscription</title>
<path fill="none" stroke="black" d="M534.49,-71.7C534.49,-63.98 534.49,-54.71 534.49,-46.11"/>
<polygon fill="black" stroke="black" points="537.99,-46.1 534.49,-36.1 530.99,-46.1 537.99,-46.1"/>
</g>
<!-- OptimizePodcast -->
<g id="node5" class="node">
<title>OptimizePodcast</title>
<ellipse fill="none" stroke="black" cx="128.49" cy="-162" rx="71.49" ry="18"/>
<text text-anchor="middle" x="128.49" y="-158.3" font-family="Times,serif" font-size="14.00">OptimizePodcast</text>
</g>
<!-- OptimizePodcast&#45;&gt;ReleaseOnTransistorFM -->
<g id="edge4" class="edge">
<title>OptimizePodcast&#45;&gt;ReleaseOnTransistorFM</title>
<path fill="none" stroke="black" d="M120.99,-144.05C117.46,-136.09 113.17,-126.41 109.23,-117.51"/>
<polygon fill="black" stroke="black" points="112.39,-116 105.14,-108.28 105.99,-118.84 112.39,-116"/>
</g>
<!-- OptimizePodcast&#45;&gt;ReleaseOnApplePodcasts -->
<g id="edge5" class="edge">
<title>OptimizePodcast&#45;&gt;ReleaseOnApplePodcasts</title>
<path fill="none" stroke="black" d="M166.38,-146.67C194.23,-136.13 232.38,-121.69 262.84,-110.16"/>
<polygon fill="black" stroke="black" points="264.33,-113.34 272.44,-106.53 261.85,-106.8 264.33,-113.34"/>
</g>
</g>
</svg>
