<?xml version="1.0" encoding="UTF-8" standalone="no"?>
<!DOCTYPE svg PUBLIC "-//W3C//DTD SVG 1.1//EN"
 "http://www.w3.org/Graphics/SVG/1.1/DTD/svg11.dtd">
<!-- Generated by graphviz version 2.44.1 (20200629.0846)
 -->
<!-- Title: G Pages: 1 -->
<svg width="298pt" height="116pt"
 viewBox="0.00 0.00 298.49 116.00" xmlns="http://www.w3.org/2000/svg" xmlns:xlink="http://www.w3.org/1999/xlink">
<g id="graph0" class="graph" transform="scale(1 1) rotate(0) translate(4 112)">
<title>G</title>
<polygon fill="white" stroke="transparent" points="-4,4 -4,-112 294.49,-112 294.49,4 -4,4"/>
<!-- ProcessPodcast -->
<g id="node1" class="node">
<title>ProcessPodcast</title>
<ellipse fill="none" stroke="black" cx="64.99" cy="-90" rx="64.99" ry="18"/>
<text text-anchor="middle" x="64.99" y="-86.3" font-family="Times,serif" font-size="14.00">ProcessPodcast</text>
</g>
<!-- PublishPodcastOnTransistorFM -->
<g id="node2" class="node">
<title>PublishPodcastOnTransistorFM</title>
<ellipse fill="none" stroke="black" cx="141.99" cy="-18" rx="124.28" ry="18"/>
<text text-anchor="middle" x="141.99" y="-14.3" font-family="Times,serif" font-size="14.00">PublishPodcastOnTransistorFM</text>
</g>
<!-- ProcessPodcast&#45;&gt;PublishPodcastOnTransistorFM -->
<g id="edge1" class="edge">
<title>ProcessPodcast&#45;&gt;PublishPodcastOnTransistorFM</title>
<path fill="none" stroke="black" d="M83.24,-72.41C92.98,-63.56 105.12,-52.52 115.84,-42.77"/>
<polygon fill="black" stroke="black" points="118.3,-45.27 123.34,-35.96 113.59,-40.09 118.3,-45.27"/>
</g>
<!-- OptimizePodcast -->
<g id="node3" class="node">
<title>OptimizePodcast</title>
<ellipse fill="none" stroke="black" cx="218.99" cy="-90" rx="71.49" ry="18"/>
<text text-anchor="middle" x="218.99" y="-86.3" font-family="Times,serif" font-size="14.00">OptimizePodcast</text>
</g>
<!-- OptimizePodcast&#45;&gt;PublishPodcastOnTransistorFM -->
<g id="edge2" class="edge">
<title>OptimizePodcast&#45;&gt;PublishPodcastOnTransistorFM</title>
<path fill="none" stroke="black" d="M200.75,-72.41C191.01,-63.56 178.86,-52.52 168.14,-42.77"/>
<polygon fill="black" stroke="black" points="170.4,-40.09 160.65,-35.96 165.69,-45.27 170.4,-40.09"/>
</g>
</g>
</svg>
