<?xml version="1.0" encoding="UTF-8" standalone="no"?>
<!DOCTYPE svg PUBLIC "-//W3C//DTD SVG 1.1//EN"
 "http://www.w3.org/Graphics/SVG/1.1/DTD/svg11.dtd">
<!-- Generated by graphviz version 2.44.1 (20200629.0846)
 -->
<!-- Title: G Pages: 1 -->
<svg width="645pt" height="260pt"
 viewBox="0.00 0.00 645.18 260.00" xmlns="http://www.w3.org/2000/svg" xmlns:xlink="http://www.w3.org/1999/xlink">
<g id="graph0" class="graph" transform="scale(1 1) rotate(0) translate(4 256)">
<title>G</title>
<polygon fill="white" stroke="transparent" points="-4,4 -4,-256 641.18,-256 641.18,4 -4,4"/>
<!-- ProcessPodcast -->
<g id="node1" class="node">
<title>ProcessPodcast</title>
<ellipse fill="none" stroke="black" cx="313.49" cy="-234" rx="64.99" ry="18"/>
<text text-anchor="middle" x="313.49" y="-230.3" font-family="Times,serif" font-size="14.00">ProcessPodcast</text>
</g>
<!-- ReleaseOnApplePodcasts -->
<g id="node2" class="node">
<title>ReleaseOnApplePodcasts</title>
<ellipse fill="none" stroke="black" cx="313.49" cy="-162" rx="100.98" ry="18"/>
<text text-anchor="middle" x="313.49" y="-158.3" font-family="Times,serif" font-size="14.00">ReleaseOnApplePodcasts</text>
</g>
<!-- ProcessPodcast&#45;&gt;ReleaseOnApplePodcasts -->
<g id="edge1" class="edge">
<title>ProcessPodcast&#45;&gt;ReleaseOnApplePodcasts</title>
<path fill="none" stroke="black" d="M313.49,-215.7C313.49,-207.98 313.49,-198.71 313.49,-190.11"/>
<polygon fill="black" stroke="black" points="316.99,-190.1 313.49,-180.1 309.99,-190.1 316.99,-190.1"/>
</g>
<!-- ReleaseOnTransistorFM -->
<g id="node3" class="node">
<title>ReleaseOnTransistorFM</title>
<ellipse fill="none" stroke="black" cx="97.49" cy="-162" rx="97.48" ry="18"/>
<text text-anchor="middle" x="97.49" y="-158.3" font-family="Times,serif" font-size="14.00">ReleaseOnTransistorFM</text>
</g>
<!-- ProcessPodcast&#45;&gt;ReleaseOnTransistorFM -->
<g id="edge2" class="edge">
<title>ProcessPodcast&#45;&gt;ReleaseOnTransistorFM</title>
<path fill="none" stroke="black" d="M272.86,-219.83C239.1,-208.89 190.7,-193.21 153.3,-181.09"/>
<polygon fill="black" stroke="black" points="154.15,-177.68 143.55,-177.93 151.99,-184.34 154.15,-177.68"/>
</g>
<!-- CreateAudioTranscription -->
<g id="node4" class="node">
<title>CreateAudioTranscription</title>
<ellipse fill="none" stroke="black" cx="534.49" cy="-162" rx="102.88" ry="18"/>
<text text-anchor="middle" x="534.49" y="-158.3" font-family="Times,serif" font-size="14.00">CreateAudioTranscription</text>
</g>
<!-- ProcessPodcast&#45;&gt;CreateAudioTranscription -->
<g id="edge3" class="edge">
<title>ProcessPodcast&#45;&gt;CreateAudioTranscription</title>
<path fill="none" stroke="black" d="M354.54,-220C389.03,-209.07 438.7,-193.34 477.13,-181.17"/>
<polygon fill="black" stroke="black" points="478.66,-184.35 487.14,-178 476.55,-177.68 478.66,-184.35"/>
</g>
<!-- SendTweetAboutNewPodcast -->
<g id="node6" class="node">
<title>SendTweetAboutNewPodcast</title>
<ellipse fill="none" stroke="black" cx="313.49" cy="-18" rx="116.18" ry="18"/>
<text text-anchor="middle" x="313.49" y="-14.3" font-family="Times,serif" font-size="14.00">SendTweetAboutNewPodcast</text>
</g>
<!-- ReleaseOnApplePodcasts&#45;&gt;SendTweetAboutNewPodcast -->
<g id="edge7" class="edge">
<title>ReleaseOnApplePodcasts&#45;&gt;SendTweetAboutNewPodcast</title>
<path fill="none" stroke="black" d="M313.49,-143.87C313.49,-119.67 313.49,-75.21 313.49,-46.39"/>
<polygon fill="black" stroke="black" points="316.99,-46.19 313.49,-36.19 309.99,-46.19 316.99,-46.19"/>
</g>
<!-- ReleaseOnTransistorFM&#45;&gt;SendTweetAboutNewPodcast -->
<g id="edge6" class="edge">
<title>ReleaseOnTransistorFM&#45;&gt;SendTweetAboutNewPodcast</title>
<path fill="none" stroke="black" d="M122.69,-144.43C161.53,-118.9 236.06,-69.91 279.58,-41.29"/>
<polygon fill="black" stroke="black" points="281.68,-44.1 288.12,-35.68 277.84,-38.25 281.68,-44.1"/>
</g>
<!-- TranslateAudioTranscription -->
<g id="node7" class="node">
<title>TranslateAudioTranscription</title>
<ellipse fill="none" stroke="black" cx="493.49" cy="-90" rx="112.38" ry="18"/>
<text text-anchor="middle" x="493.49" y="-86.3" font-family="Times,serif" font-size="14.00">TranslateAudioTranscription</text>
</g>
<!-- CreateAudioTranscription&#45;&gt;TranslateAudioTranscription -->
<g id="edge8" class="edge">
<title>CreateAudioTranscription&#45;&gt;TranslateAudioTranscription</title>
<path fill="none" stroke="black" d="M524.57,-144.05C519.8,-135.92 513.99,-126 508.69,-116.94"/>
<polygon fill="black" stroke="black" points="511.68,-115.14 503.61,-108.28 505.64,-118.67 511.68,-115.14"/>
</g>
<!-- OptimizePodcast -->
<g id="node5" class="node">
<title>OptimizePodcast</title>
<ellipse fill="none" stroke="black" cx="128.49" cy="-234" rx="71.49" ry="18"/>
<text text-anchor="middle" x="128.49" y="-230.3" font-family="Times,serif" font-size="14.00">OptimizePodcast</text>
</g>
<!-- OptimizePodcast&#45;&gt;ReleaseOnApplePodcasts -->
<g id="edge4" class="edge">
<title>OptimizePodcast&#45;&gt;ReleaseOnApplePodcasts</title>
<path fill="none" stroke="black" d="M166.38,-218.67C194.23,-208.13 232.38,-193.69 262.84,-182.16"/>
<polygon fill="black" stroke="black" points="264.33,-185.34 272.44,-178.53 261.85,-178.8 264.33,-185.34"/>
</g>
<!-- OptimizePodcast&#45;&gt;ReleaseOnTransistorFM -->
<g id="edge5" class="edge">
<title>OptimizePodcast&#45;&gt;ReleaseOnTransistorFM</title>
<path fill="none" stroke="black" d="M120.99,-216.05C117.46,-208.09 113.17,-198.41 109.23,-189.51"/>
<polygon fill="black" stroke="black" points="112.39,-188 105.14,-180.28 105.99,-190.84 112.39,-188"/>
</g>
<!-- TranslateAudioTranscription&#45;&gt;SendTweetAboutNewPodcast -->
<g id="edge9" class="edge">
<title>TranslateAudioTranscription&#45;&gt;SendTweetAboutNewPodcast</title>
<path fill="none" stroke="black" d="M452.65,-73.12C426.39,-62.9 392.08,-49.56 364.1,-38.68"/>
<polygon fill="black" stroke="black" points="365.07,-35.3 354.49,-34.94 362.54,-41.83 365.07,-35.3"/>
</g>
</g>
</svg>
