<?xml version="1.0" encoding="UTF-8" standalone="no"?>
<!DOCTYPE svg PUBLIC "-//W3C//DTD SVG 1.1//EN"
 "http://www.w3.org/Graphics/SVG/1.1/DTD/svg11.dtd">
<!-- Generated by graphviz version 2.44.1 (20200629.0846)
 -->
<!-- Title: G Pages: 1 -->
<svg width="645pt" height="260pt"
 viewBox="0.00 0.00 645.43 260.00" xmlns="http://www.w3.org/2000/svg" xmlns:xlink="http://www.w3.org/1999/xlink">
<g id="graph0" class="graph" transform="scale(1 1) rotate(0) translate(4 256)">
<title>G</title>
<polygon fill="white" stroke="transparent" points="-4,4 -4,-256 641.43,-256 641.43,4 -4,4"/>
<!-- ProcessPodcast -->
<g id="node1" class="node">
<title>ProcessPodcast</title>
<ellipse fill="none" stroke="black" cx="316.74" cy="-234" rx="64.99" ry="18"/>
<text text-anchor="middle" x="316.74" y="-230.3" font-family="Times,serif" font-size="14.00">ProcessPodcast</text>
</g>
<!-- ReleaseOnApplePodcasts -->
<g id="node2" class="node">
<title>ReleaseOnApplePodcasts</title>
<ellipse fill="none" stroke="black" cx="100.74" cy="-162" rx="100.98" ry="18"/>
<text text-anchor="middle" x="100.74" y="-158.3" font-family="Times,serif" font-size="14.00">ReleaseOnApplePodcasts</text>
</g>
<!-- ProcessPodcast&#45;&gt;ReleaseOnApplePodcasts -->
<g id="edge1" class="edge">
<title>ProcessPodcast&#45;&gt;ReleaseOnApplePodcasts</title>
<path fill="none" stroke="black" d="M276.11,-219.83C242.46,-208.93 194.27,-193.31 156.92,-181.21"/>
<polygon fill="black" stroke="black" points="157.78,-177.81 147.19,-178.05 155.62,-184.46 157.78,-177.81"/>
</g>
<!-- ReleaseOnTransistorFM -->
<g id="node3" class="node">
<title>ReleaseOnTransistorFM</title>
<ellipse fill="none" stroke="black" cx="316.74" cy="-162" rx="97.48" ry="18"/>
<text text-anchor="middle" x="316.74" y="-158.3" font-family="Times,serif" font-size="14.00">ReleaseOnTransistorFM</text>
</g>
<!-- ProcessPodcast&#45;&gt;ReleaseOnTransistorFM -->
<g id="edge2" class="edge">
<title>ProcessPodcast&#45;&gt;ReleaseOnTransistorFM</title>
<path fill="none" stroke="black" d="M316.74,-215.7C316.74,-207.98 316.74,-198.71 316.74,-190.11"/>
<polygon fill="black" stroke="black" points="320.24,-190.1 316.74,-180.1 313.24,-190.1 320.24,-190.1"/>
</g>
<!-- CreateAudioTranscription -->
<g id="node4" class="node">
<title>CreateAudioTranscription</title>
<ellipse fill="none" stroke="black" cx="534.74" cy="-162" rx="102.88" ry="18"/>
<text text-anchor="middle" x="534.74" y="-158.3" font-family="Times,serif" font-size="14.00">CreateAudioTranscription</text>
</g>
<!-- ProcessPodcast&#45;&gt;CreateAudioTranscription -->
<g id="edge3" class="edge">
<title>ProcessPodcast&#45;&gt;CreateAudioTranscription</title>
<path fill="none" stroke="black" d="M357.49,-219.92C391.43,-209.02 440.14,-193.38 477.91,-181.25"/>
<polygon fill="black" stroke="black" points="479.3,-184.48 487.75,-178.09 477.16,-177.81 479.3,-184.48"/>
</g>
<!-- SendTweetAboutNewPodcast -->
<g id="node6" class="node">
<title>SendTweetAboutNewPodcast</title>
<ellipse fill="none" stroke="black" cx="316.74" cy="-18" rx="116.18" ry="18"/>
<text text-anchor="middle" x="316.74" y="-14.3" font-family="Times,serif" font-size="14.00">SendTweetAboutNewPodcast</text>
</g>
<!-- ReleaseOnApplePodcasts&#45;&gt;SendTweetAboutNewPodcast -->
<g id="edge9" class="edge">
<title>ReleaseOnApplePodcasts&#45;&gt;SendTweetAboutNewPodcast</title>
<path fill="none" stroke="black" d="M101.22,-143.76C102.72,-123.76 108.24,-91.09 127.74,-72 149.4,-50.79 178.82,-37.93 208,-30.16"/>
<polygon fill="black" stroke="black" points="209.01,-33.52 217.88,-27.72 207.33,-26.72 209.01,-33.52"/>
</g>
<!-- NotifySubscribers -->
<g id="node7" class="node">
<title>NotifySubscribers</title>
<ellipse fill="none" stroke="black" cx="211.74" cy="-90" rx="74.99" ry="18"/>
<text text-anchor="middle" x="211.74" y="-86.3" font-family="Times,serif" font-size="14.00">NotifySubscribers</text>
</g>
<!-- ReleaseOnApplePodcasts&#45;&gt;NotifySubscribers -->
<g id="edge8" class="edge">
<title>ReleaseOnApplePodcasts&#45;&gt;NotifySubscribers</title>
<path fill="none" stroke="black" d="M126.77,-144.59C141.9,-135.04 161.16,-122.9 177.52,-112.58"/>
<polygon fill="black" stroke="black" points="179.67,-115.36 186.26,-107.07 175.94,-109.44 179.67,-115.36"/>
</g>
<!-- ReleaseOnTransistorFM&#45;&gt;SendTweetAboutNewPodcast -->
<g id="edge6" class="edge">
<title>ReleaseOnTransistorFM&#45;&gt;SendTweetAboutNewPodcast</title>
<path fill="none" stroke="black" d="M316.74,-143.87C316.74,-119.67 316.74,-75.21 316.74,-46.39"/>
<polygon fill="black" stroke="black" points="320.24,-46.19 316.74,-36.19 313.24,-46.19 320.24,-46.19"/>
</g>
<!-- ReleaseOnTransistorFM&#45;&gt;NotifySubscribers -->
<g id="edge7" class="edge">
<title>ReleaseOnTransistorFM&#45;&gt;NotifySubscribers</title>
<path fill="none" stroke="black" d="M291.86,-144.41C277.76,-135.02 259.96,-123.15 244.72,-112.98"/>
<polygon fill="black" stroke="black" points="246.35,-109.86 236.08,-107.23 242.46,-115.69 246.35,-109.86"/>
</g>
<!-- TranslateAudioTranscription -->
<g id="node8" class="node">
<title>TranslateAudioTranscription</title>
<ellipse fill="none" stroke="black" cx="495.74" cy="-90" rx="112.38" ry="18"/>
<text text-anchor="middle" x="495.74" y="-86.3" font-family="Times,serif" font-size="14.00">TranslateAudioTranscription</text>
</g>
<!-- CreateAudioTranscription&#45;&gt;TranslateAudioTranscription -->
<g id="edge10" class="edge">
<title>CreateAudioTranscription&#45;&gt;TranslateAudioTranscription</title>
<path fill="none" stroke="black" d="M525.3,-144.05C520.82,-136.01 515.36,-126.2 510.35,-117.23"/>
<polygon fill="black" stroke="black" points="513.29,-115.31 505.37,-108.28 507.18,-118.71 513.29,-115.31"/>
</g>
<!-- OptimizePodcast -->
<g id="node5" class="node">
<title>OptimizePodcast</title>
<ellipse fill="none" stroke="black" cx="131.74" cy="-234" rx="71.49" ry="18"/>
<text text-anchor="middle" x="131.74" y="-230.3" font-family="Times,serif" font-size="14.00">OptimizePodcast</text>
</g>
<!-- OptimizePodcast&#45;&gt;ReleaseOnApplePodcasts -->
<g id="edge4" class="edge">
<title>OptimizePodcast&#45;&gt;ReleaseOnApplePodcasts</title>
<path fill="none" stroke="black" d="M124.24,-216.05C120.71,-208.09 116.42,-198.41 112.48,-189.51"/>
<polygon fill="black" stroke="black" points="115.64,-188 108.39,-180.28 109.24,-190.84 115.64,-188"/>
</g>
<!-- OptimizePodcast&#45;&gt;ReleaseOnTransistorFM -->
<g id="edge5" class="edge">
<title>OptimizePodcast&#45;&gt;ReleaseOnTransistorFM</title>
<path fill="none" stroke="black" d="M169.62,-218.67C197.57,-208.09 235.89,-193.59 266.41,-182.05"/>
<polygon fill="black" stroke="black" points="267.91,-185.22 276.02,-178.41 265.43,-178.67 267.91,-185.22"/>
</g>
<!-- TranslateAudioTranscription&#45;&gt;SendTweetAboutNewPodcast -->
<g id="edge11" class="edge">
<title>TranslateAudioTranscription&#45;&gt;SendTweetAboutNewPodcast</title>
<path fill="none" stroke="black" d="M455.12,-73.12C429.01,-62.9 394.89,-49.56 367.06,-38.68"/>
<polygon fill="black" stroke="black" points="368.1,-35.32 357.51,-34.94 365.55,-41.84 368.1,-35.32"/>
</g>
</g>
</svg>
