<?xml version="1.0" encoding="UTF-8" standalone="no"?>
<!DOCTYPE svg PUBLIC "-//W3C//DTD SVG 1.1//EN"
 "http://www.w3.org/Graphics/SVG/1.1/DTD/svg11.dtd">
<!-- Generated by graphviz version 2.44.1 (20200629.0846)
 -->
<!-- Title: G Pages: 1 -->
<svg width="136pt" height="188pt"
 viewBox="0.00 0.00 135.60 188.00" xmlns="http://www.w3.org/2000/svg" xmlns:xlink="http://www.w3.org/1999/xlink">
<g id="graph0" class="graph" transform="scale(1 1) rotate(0) translate(4 184)">
<title>G</title>
<polygon fill="white" stroke="transparent" points="-4,4 -4,-184 131.6,-184 131.6,4 -4,4"/>
<!-- Job1 -->
<g id="node1" class="node">
<title>Job1</title>
<ellipse fill="none" stroke="black" cx="27.3" cy="-162" rx="27.1" ry="18"/>
<text text-anchor="middle" x="27.3" y="-158.3" font-family="Times,serif" font-size="14.00">Job1</text>
</g>
<!-- Job3 -->
<g id="node2" class="node">
<title>Job3</title>
<ellipse fill="none" stroke="black" cx="63.3" cy="-90" rx="27.1" ry="18"/>
<text text-anchor="middle" x="63.3" y="-86.3" font-family="Times,serif" font-size="14.00">Job3</text>
</g>
<!-- Job1&#45;&gt;Job3 -->
<g id="edge1" class="edge">
<title>Job1&#45;&gt;Job3</title>
<path fill="none" stroke="black" d="M35.65,-144.76C40.01,-136.28 45.44,-125.71 50.34,-116.2"/>
<polygon fill="black" stroke="black" points="53.53,-117.64 54.99,-107.15 47.31,-114.44 53.53,-117.64"/>
</g>
<!-- Job4 -->
<g id="node4" class="node">
<title>Job4</title>
<ellipse fill="none" stroke="black" cx="63.3" cy="-18" rx="27.1" ry="18"/>
<text text-anchor="middle" x="63.3" y="-14.3" font-family="Times,serif" font-size="14.00">Job4</text>
</g>
<!-- Job3&#45;&gt;Job4 -->
<g id="edge3" class="edge">
<title>Job3&#45;&gt;Job4</title>
<path fill="none" stroke="black" d="M63.3,-71.7C63.3,-63.98 63.3,-54.71 63.3,-46.11"/>
<polygon fill="black" stroke="black" points="66.8,-46.1 63.3,-36.1 59.8,-46.1 66.8,-46.1"/>
</g>
<!-- Job2 -->
<g id="node3" class="node">
<title>Job2</title>
<ellipse fill="none" stroke="black" cx="100.3" cy="-162" rx="27.1" ry="18"/>
<text text-anchor="middle" x="100.3" y="-158.3" font-family="Times,serif" font-size="14.00">Job2</text>
</g>
<!-- Job2&#45;&gt;Job3 -->
<g id="edge2" class="edge">
<title>Job2&#45;&gt;Job3</title>
<path fill="none" stroke="black" d="M91.72,-144.76C87.23,-136.28 81.65,-125.71 76.62,-116.2"/>
<polygon fill="black" stroke="black" points="79.6,-114.35 71.83,-107.15 73.41,-117.62 79.6,-114.35"/>
</g>
</g>
</svg>
