<?xml version="1.0" encoding="UTF-8" standalone="no"?>
<!DOCTYPE svg PUBLIC "-//W3C//DTD SVG 1.1//EN"
 "http://www.w3.org/Graphics/SVG/1.1/DTD/svg11.dtd">
<!-- Generated by graphviz version 3.0.0 (20220226.1711)
 -->
<!-- Title: G Pages: 1 -->
<svg width="293pt" height="153pt"
 viewBox="0.00 0.00 293.00 153.00" xmlns="http://www.w3.org/2000/svg" xmlns:xlink="http://www.w3.org/1999/xlink">
<g id="graph0" class="graph" transform="scale(1 1) rotate(0) translate(4 149)">
<title>G</title>
<polygon fill="white" stroke="transparent" points="-4,4 -4,-149 289,-149 289,4 -4,4"/>
<g id="clust1" class="cluster">
<title>cluster_workflow</title>
<polygon fill="none" stroke="black" stroke-dasharray="1,5" points="8,-8 8,-81 277,-81 277,-8 8,-8"/>
<text text-anchor="middle" x="142.5" y="-15.4" font-family="sans-serif" font-size="12.00">EncodePodcastWorkflow</text>
</g>
<!-- ProcessPodcast -->
<g id="node1" class="node">
<title>ProcessPodcast</title>
<ellipse fill="none" stroke="black" cx="143" cy="-127" rx="64.04" ry="18"/>
<text text-anchor="middle" x="143" y="-123.9" font-family="sans-serif" font-size="12.00">ProcessPodcast</text>
</g>
<!-- EncodeAsMp3 -->
<g id="node2" class="node">
<title>EncodeAsMp3</title>
<ellipse fill="none" stroke="black" cx="211" cy="-55" rx="58.46" ry="18"/>
<text text-anchor="middle" x="211" y="-51.9" font-family="sans-serif" font-size="12.00">EncodeAsMp3</text>
</g>
<!-- ProcessPodcast&#45;&gt;EncodeAsMp3 -->
<g id="edge1" class="edge">
<title>ProcessPodcast&#45;&gt;EncodeAsMp3</title>
<path fill="none" stroke="black" d="M159.12,-109.41C167.67,-100.61 178.33,-89.63 187.76,-79.92"/>
<polygon fill="black" stroke="black" points="190.54,-82.08 195,-72.47 185.52,-77.2 190.54,-82.08"/>
</g>
<!-- EncodeAsWav -->
<g id="node3" class="node">
<title>EncodeAsWav</title>
<ellipse fill="none" stroke="black" cx="75" cy="-55" rx="59.19" ry="18"/>
<text text-anchor="middle" x="75" y="-51.9" font-family="sans-serif" font-size="12.00">EncodeAsWav</text>
</g>
<!-- ProcessPodcast&#45;&gt;EncodeAsWav -->
<g id="edge2" class="edge">
<title>ProcessPodcast&#45;&gt;EncodeAsWav</title>
<path fill="none" stroke="black" d="M126.88,-109.41C118.33,-100.61 107.67,-89.63 98.24,-79.92"/>
<polygon fill="black" stroke="black" points="100.48,-77.2 91,-72.47 95.46,-82.08 100.48,-77.2"/>
</g>
</g>
</svg>
