<?xml version="1.0" encoding="UTF-8" standalone="no"?>
<!DOCTYPE svg PUBLIC "-//W3C//DTD SVG 1.1//EN"
 "http://www.w3.org/Graphics/SVG/1.1/DTD/svg11.dtd">
<!-- Generated by graphviz version 2.44.1 (20200629.0846)
 -->
<!-- Title: G Pages: 1 -->
<svg width="561pt" height="188pt"
 viewBox="0.00 0.00 561.44 188.00" xmlns="http://www.w3.org/2000/svg" xmlns:xlink="http://www.w3.org/1999/xlink">
<g id="graph0" class="graph" transform="scale(1 1) rotate(0) translate(4 184)">
<title>G</title>
<polygon fill="white" stroke="transparent" points="-4,4 -4,-184 557.44,-184 557.44,4 -4,4"/>
<!-- EncodeMp3 -->
<g id="node1" class="node">
<title>EncodeMp3</title>
<ellipse fill="none" stroke="black" cx="83.1" cy="-90" rx="83.21" ry="18"/>
<text text-anchor="middle" x="83.1" y="-86.9" font-family="sans-serif" font-size="12.00">EncodePodcast (Mp3)</text>
</g>
<!-- EncodeWav -->
<g id="node2" class="node">
<title>EncodeWav</title>
<ellipse fill="none" stroke="black" cx="268.1" cy="-90" rx="83.94" ry="18"/>
<text text-anchor="middle" x="268.1" y="-86.9" font-family="sans-serif" font-size="12.00">EncodePodcast (Wav)</text>
</g>
<!-- EncodeFlac -->
<g id="node3" class="node">
<title>EncodeFlac</title>
<ellipse fill="none" stroke="black" cx="453.1" cy="-90" rx="83.21" ry="18"/>
<text text-anchor="middle" x="453.1" y="-86.9" font-family="sans-serif" font-size="12.00">EncodePodcast (Flac)</text>
</g>
<!-- NotifyAudiophileMailingList -->
<g id="node5" class="node">
<title>NotifyAudiophileMailingList</title>
<ellipse fill="none" stroke="black" cx="453.1" cy="-18" rx="100.18" ry="18"/>
<text text-anchor="middle" x="453.1" y="-14.9" font-family="sans-serif" font-size="12.00">NotifyAudiophileMailingList</text>
</g>
<!-- EncodeFlac&#45;&gt;NotifyAudiophileMailingList -->
<g id="edge4" class="edge">
<title>EncodeFlac&#45;&gt;NotifyAudiophileMailingList</title>
<path fill="none" stroke="black" d="M453.1,-71.7C453.1,-63.98 453.1,-54.71 453.1,-46.11"/>
<polygon fill="black" stroke="black" points="456.6,-46.1 453.1,-36.1 449.6,-46.1 456.6,-46.1"/>
</g>
<!-- ProcessPodcast -->
<g id="node4" class="node">
<title>ProcessPodcast</title>
<ellipse fill="none" stroke="black" cx="268.1" cy="-162" rx="64.04" ry="18"/>
<text text-anchor="middle" x="268.1" y="-158.9" font-family="sans-serif" font-size="12.00">ProcessPodcast</text>
</g>
<!-- ProcessPodcast&#45;&gt;EncodeMp3 -->
<g id="edge1" class="edge">
<title>ProcessPodcast&#45;&gt;EncodeMp3</title>
<path fill="none" stroke="black" d="M231.55,-147.17C203.02,-136.37 163.11,-121.27 131.86,-109.45"/>
<polygon fill="black" stroke="black" points="133.05,-106.16 122.46,-105.89 130.57,-112.7 133.05,-106.16"/>
</g>
<!-- ProcessPodcast&#45;&gt;EncodeWav -->
<g id="edge2" class="edge">
<title>ProcessPodcast&#45;&gt;EncodeWav</title>
<path fill="none" stroke="black" d="M268.1,-143.7C268.1,-135.98 268.1,-126.71 268.1,-118.11"/>
<polygon fill="black" stroke="black" points="271.6,-118.1 268.1,-108.1 264.6,-118.1 271.6,-118.1"/>
</g>
<!-- ProcessPodcast&#45;&gt;EncodeFlac -->
<g id="edge3" class="edge">
<title>ProcessPodcast&#45;&gt;EncodeFlac</title>
<path fill="none" stroke="black" d="M304.65,-147.17C333.19,-136.37 373.1,-121.27 404.35,-109.45"/>
<polygon fill="black" stroke="black" points="405.64,-112.7 413.75,-105.89 403.16,-106.16 405.64,-112.7"/>
</g>
</g>
</svg>
