<?xml version="1.0" encoding="UTF-8" standalone="no"?>
<!DOCTYPE svg PUBLIC "-//W3C//DTD SVG 1.1//EN"
 "http://www.w3.org/Graphics/SVG/1.1/DTD/svg11.dtd">
<!-- Generated by graphviz version 2.44.1 (20200629.0846)
 -->
<!-- Title: G Pages: 1 -->
<svg width="616pt" height="221pt"
 viewBox="0.00 0.00 616.00 221.00" xmlns="http://www.w3.org/2000/svg" xmlns:xlink="http://www.w3.org/1999/xlink">
<g id="graph0" class="graph" transform="scale(1 1) rotate(0) translate(4 217)">
<title>G</title>
<polygon fill="white" stroke="transparent" points="-4,4 -4,-217 612,-217 612,4 -4,4"/>
<g id="clust1" class="cluster">
<title>cluster_notify</title>
</g>
<g id="clust2" class="cluster">
<title>cluster_flac</title>
<polygon fill="none" stroke="black" stroke-dasharray="1,5" points="384,-8 384,-153 600,-153 600,-8 384,-8"/>
<text text-anchor="middle" x="533.5" y="-139.4" font-family="sans-serif" font-size="12.00">FlacPodcastWorkflow</text>
</g>
<!-- EncodeMp3 -->
<g id="node1" class="node">
<title>EncodeMp3</title>
<ellipse fill="none" stroke="black" cx="99" cy="-106" rx="83.21" ry="18"/>
<text text-anchor="middle" x="99" y="-102.9" font-family="sans-serif" font-size="12.00">EncodePodcast (Mp3)</text>
</g>
<!-- EncodeWav -->
<g id="node2" class="node">
<title>EncodeWav</title>
<ellipse fill="none" stroke="black" cx="284" cy="-106" rx="83.94" ry="18"/>
<text text-anchor="middle" x="284" y="-102.9" font-family="sans-serif" font-size="12.00">EncodePodcast (Wav)</text>
</g>
<!-- EncodeFlac -->
<g id="node3" class="node">
<title>EncodeFlac</title>
<ellipse fill="none" stroke="black" cx="483" cy="-106" rx="83.21" ry="18"/>
<text text-anchor="middle" x="483" y="-102.9" font-family="sans-serif" font-size="12.00">EncodePodcast (Flac)</text>
</g>
<!-- NotifyAudiophileMailingList -->
<g id="node5" class="node">
<title>NotifyAudiophileMailingList</title>
<ellipse fill="none" stroke="black" cx="492" cy="-34" rx="100.18" ry="18"/>
<text text-anchor="middle" x="492" y="-30.9" font-family="sans-serif" font-size="12.00">NotifyAudiophileMailingList</text>
</g>
<!-- EncodeFlac&#45;&gt;NotifyAudiophileMailingList -->
<g id="edge4" class="edge">
<title>EncodeFlac&#45;&gt;NotifyAudiophileMailingList</title>
<path fill="none" stroke="black" d="M485.22,-87.7C486.22,-79.98 487.41,-70.71 488.51,-62.11"/>
<polygon fill="black" stroke="black" points="492,-62.47 489.8,-52.1 485.05,-61.58 492,-62.47"/>
</g>
<!-- ProcessPodcast -->
<g id="node4" class="node">
<title>ProcessPodcast</title>
<ellipse fill="none" stroke="black" cx="284" cy="-179" rx="64.04" ry="18"/>
<text text-anchor="middle" x="284" y="-175.9" font-family="sans-serif" font-size="12.00">ProcessPodcast</text>
</g>
<!-- ProcessPodcast&#45;&gt;EncodeMp3 -->
<g id="edge1" class="edge">
<title>ProcessPodcast&#45;&gt;EncodeMp3</title>
<path fill="none" stroke="black" d="M235.62,-166.97C221.08,-163.13 205.22,-158.4 191,-153 172.58,-146 152.95,-136.49 136.57,-127.93"/>
<polygon fill="black" stroke="black" points="137.81,-124.63 127.34,-123.03 134.53,-130.81 137.81,-124.63"/>
</g>
<!-- ProcessPodcast&#45;&gt;EncodeWav -->
<g id="edge2" class="edge">
<title>ProcessPodcast&#45;&gt;EncodeWav</title>
<path fill="none" stroke="black" d="M284,-160.81C284,-152.79 284,-143.05 284,-134.07"/>
<polygon fill="black" stroke="black" points="287.5,-134.03 284,-124.03 280.5,-134.03 287.5,-134.03"/>
</g>
<!-- ProcessPodcast&#45;&gt;EncodeFlac -->
<g id="edge3" class="edge">
<title>ProcessPodcast&#45;&gt;EncodeFlac</title>
<path fill="none" stroke="black" d="M332.32,-167.07C347.72,-163.15 364.72,-158.36 380,-153 401.03,-145.62 423.71,-135.72 442.42,-126.99"/>
<polygon fill="black" stroke="black" points="443.99,-130.12 451.54,-122.68 441,-123.79 443.99,-130.12"/>
</g>
</g>
</svg>
