<svg xmlns="http://www.w3.org/2000/svg" viewBox="0 0 220 130" width="220" height="130">
    <path fill="url(#a)" d="M41.3 0h-16l-8 .1-17.3.1 11.1 13.2c4.1 4.9 8.3 9.8 12.4 14.6l12.5 14.6 25.1 29c8.4 9.7 16.7 19.4 25 29.2l24.9 29.2h8.7l24.1-29.9 24-29.9 24-29.9 24-30 4.2-5.3-6.6.1-65.4 1.2h-.9l-.5.7-31.8 40.1-.5.6 1.2 1 .5-.6 32.9-38 57.8 1.1-20.7 24.1-25 29.1-25 29.1-20.5 24-19.9-24.6-24.1-29.9-23.9-30-12-15-1.2-1.5h6.9"/>
    <linearGradient id="a" gradientUnits="userSpaceOnUse" x1="12" x2="179" y1="-21" y2="75">
        <stop offset="0" stop-color="#ff2d20"/>
        <stop offset=".29" stop-color="#fb2c1f"/>
        <stop offset=".60" stop-color="#ee2a1e"/>
        <stop offset=".75" stop-color="#e6291d"/>
        <stop offset=".78" stop-color="#e83428"/>
        <stop offset=".84" stop-color="#ee5147"/>
        <stop offset=".93" stop-color="#f77f78"/>
        <stop offset="1" stop-color="#ffaba6"/>
    </linearGradient>
    <linearGradient id="b" gradientUnits="userSpaceOnUse" x1="51" x2="142" y1="-12" y2="63">
        <stop offset="0" stop-color="#ff2d20"/>
        <stop offset=".298" stop-color="#fb2c1f"/>
        <stop offset=".608" stop-color="#ee2a1e"/>
        <stop offset=".75" stop-color="#e6291d"/>
        <stop offset=".785" stop-color="#e83428"/>
        <stop offset=".849" stop-color="#ee5147"/>
        <stop offset=".931" stop-color="#f77f78"/>
        <stop offset="1" stop-color="#ffaba6"/>
    </linearGradient>
    <path fill="url(#b)" d="M41.3 0h8l3.9.1 2.3 2.9c5.4 6.6 10.9 13.2 16.2 19.9l16.1 20.1c5.3 6.7 10.6 13.4 15.9 20.2l7.9 10.1 4 5.2c2.7-3.1 5.5-6.2 8.3-9.2l12.9-14.2c4.4-4.7 8.6-9.4 13-14 4.4-4.7 8.8-9.3 13.2-13.9l.6-.6 1.1.9-.4.7-10.9 15.8-11.1 15.6-11.4 15.4c-3.7 5.2-7.6 10.3-11.4 15.4l-3.7 5-4.6-5-8.7-9.5-8.6-9.5c-5.7-6.4-11.4-12.7-17.1-19.2-5.7-6.4-11.3-12.9-16.9-19.3l-14.3-16.5h-4.3v-16.4z"/>
</svg>
