<?xml version="1.0" encoding="UTF-8" standalone="no"?>
<!DOCTYPE svg PUBLIC "-//W3C//DTD SVG 1.1//EN"
 "http://www.w3.org/Graphics/SVG/1.1/DTD/svg11.dtd">
<!-- Generated by graphviz version 2.44.1 (20200629.0846)
 -->
<!-- Title: G Pages: 1 -->
<svg width="360pt" height="116pt"
 viewBox="0.00 0.00 359.82 116.00" xmlns="http://www.w3.org/2000/svg" xmlns:xlink="http://www.w3.org/1999/xlink">
<g id="graph0" class="graph" transform="scale(1 1) rotate(0) translate(4 112)">
<title>G</title>
<polygon fill="white" stroke="transparent" points="-4,4 -4,-112 355.82,-112 355.82,4 -4,4"/>
<!-- EncodeMp3 -->
<g id="node1" class="node">
<title>EncodeMp3</title>
<ellipse fill="none" stroke="black" cx="83.1" cy="-18" rx="83.21" ry="18"/>
<text text-anchor="middle" x="83.1" y="-14.9" font-family="sans-serif" font-size="12.00">EncodePodcast (Mp3)</text>
</g>
<!-- EncodeWav -->
<g id="node2" class="node">
<title>EncodeWav</title>
<ellipse fill="none" stroke="black" cx="268.1" cy="-18" rx="83.94" ry="18"/>
<text text-anchor="middle" x="268.1" y="-14.9" font-family="sans-serif" font-size="12.00">EncodePodcast (Wav)</text>
</g>
<!-- ProcessPodcast -->
<g id="node3" class="node">
<title>ProcessPodcast</title>
<ellipse fill="none" stroke="black" cx="175.1" cy="-90" rx="64.04" ry="18"/>
<text text-anchor="middle" x="175.1" y="-86.9" font-family="sans-serif" font-size="12.00">ProcessPodcast</text>
</g>
<!-- ProcessPodcast&#45;&gt;EncodeMp3 -->
<g id="edge1" class="edge">
<title>ProcessPodcast&#45;&gt;EncodeMp3</title>
<path fill="none" stroke="black" d="M153.77,-72.76C141.55,-63.47 126.03,-51.66 112.65,-41.48"/>
<polygon fill="black" stroke="black" points="114.72,-38.66 104.65,-35.39 110.48,-44.23 114.72,-38.66"/>
</g>
<!-- ProcessPodcast&#45;&gt;EncodeWav -->
<g id="edge2" class="edge">
<title>ProcessPodcast&#45;&gt;EncodeWav</title>
<path fill="none" stroke="black" d="M196.67,-72.76C209.03,-63.47 224.71,-51.66 238.24,-41.48"/>
<polygon fill="black" stroke="black" points="240.44,-44.2 246.33,-35.39 236.23,-38.61 240.44,-44.2"/>
</g>
</g>
</svg>
