<?xml version="1.0" encoding="UTF-8" standalone="no"?>
<!DOCTYPE svg PUBLIC "-//W3C//DTD SVG 1.1//EN"
 "http://www.w3.org/Graphics/SVG/1.1/DTD/svg11.dtd">
<!-- Generated by graphviz version 2.44.1 (20200629.0846)
 -->
<!-- Title: G Pages: 1 -->
<svg width="433pt" height="313pt"
 viewBox="0.00 0.00 433.00 313.00" xmlns="http://www.w3.org/2000/svg" xmlns:xlink="http://www.w3.org/1999/xlink">
<g id="graph0" class="graph" transform="scale(1 1) rotate(0) translate(4 309)">
<title>G</title>
<polygon fill="white" stroke="transparent" points="-4,4 -4,-309 429,-309 429,4 -4,4"/>
<g id="clust1" class="cluster">
<title>cluster_notify</title>
</g>
<g id="clust2" class="cluster">
<title>cluster_release</title>
<polygon fill="none" stroke="black" stroke-dasharray="1,5" points="8,-80 8,-297 417,-297 417,-80 8,-80"/>
<text text-anchor="middle" x="361.5" y="-283.4" font-family="sans-serif" font-size="12.00">ReleaseWorkflow</text>
</g>
<!-- NotifySubscribers -->
<g id="node1" class="node">
<title>NotifySubscribers</title>
<ellipse fill="none" stroke="black" cx="216" cy="-34" rx="68.16" ry="18"/>
<text text-anchor="middle" x="216" y="-30.9" font-family="sans-serif" font-size="12.00">NotifySubscribers</text>
</g>
<!-- ProcessPodcast -->
<g id="node2" class="node">
<title>ProcessPodcast</title>
<ellipse fill="none" stroke="black" cx="216" cy="-250" rx="64.04" ry="18"/>
<text text-anchor="middle" x="216" y="-246.9" font-family="sans-serif" font-size="12.00">ProcessPodcast</text>
</g>
<!-- OptimizePodcast -->
<g id="node3" class="node">
<title>OptimizePodcast</title>
<ellipse fill="none" stroke="black" cx="216" cy="-178" rx="65.74" ry="18"/>
<text text-anchor="middle" x="216" y="-174.9" font-family="sans-serif" font-size="12.00">OptimizePodcast</text>
</g>
<!-- ProcessPodcast&#45;&gt;OptimizePodcast -->
<g id="edge1" class="edge">
<title>ProcessPodcast&#45;&gt;OptimizePodcast</title>
<path fill="none" stroke="black" d="M216,-231.7C216,-223.98 216,-214.71 216,-206.11"/>
<polygon fill="black" stroke="black" points="219.5,-206.1 216,-196.1 212.5,-206.1 219.5,-206.1"/>
</g>
<!-- ReleaseOnApplePodcasts -->
<g id="node4" class="node">
<title>ReleaseOnApplePodcasts</title>
<ellipse fill="none" stroke="black" cx="113" cy="-106" rx="97.03" ry="18"/>
<text text-anchor="middle" x="113" y="-102.9" font-family="sans-serif" font-size="12.00">ReleaseOnApplePodcasts</text>
</g>
<!-- OptimizePodcast&#45;&gt;ReleaseOnApplePodcasts -->
<g id="edge2" class="edge">
<title>OptimizePodcast&#45;&gt;ReleaseOnApplePodcasts</title>
<path fill="none" stroke="black" d="M192.63,-161.12C178.83,-151.74 161.16,-139.73 145.96,-129.4"/>
<polygon fill="black" stroke="black" points="147.59,-126.28 137.35,-123.55 143.66,-132.07 147.59,-126.28"/>
</g>
<!-- ReleaseOnTransistorFM -->
<g id="node5" class="node">
<title>ReleaseOnTransistorFM</title>
<ellipse fill="none" stroke="black" cx="319" cy="-106" rx="90.48" ry="18"/>
<text text-anchor="middle" x="319" y="-102.9" font-family="sans-serif" font-size="12.00">ReleaseOnTransistorFM</text>
</g>
<!-- OptimizePodcast&#45;&gt;ReleaseOnTransistorFM -->
<g id="edge3" class="edge">
<title>OptimizePodcast&#45;&gt;ReleaseOnTransistorFM</title>
<path fill="none" stroke="black" d="M239.37,-161.12C253.17,-151.74 270.84,-139.73 286.04,-129.4"/>
<polygon fill="black" stroke="black" points="288.34,-132.07 294.65,-123.55 284.41,-126.28 288.34,-132.07"/>
</g>
<!-- ReleaseOnApplePodcasts&#45;&gt;NotifySubscribers -->
<g id="edge5" class="edge">
<title>ReleaseOnApplePodcasts&#45;&gt;NotifySubscribers</title>
<path fill="none" stroke="black" d="M137.41,-88.41C151.33,-78.95 168.95,-66.97 183.98,-56.76"/>
<polygon fill="black" stroke="black" points="186.17,-59.5 192.47,-50.99 182.24,-53.71 186.17,-59.5"/>
</g>
<!-- ReleaseOnTransistorFM&#45;&gt;NotifySubscribers -->
<g id="edge4" class="edge">
<title>ReleaseOnTransistorFM&#45;&gt;NotifySubscribers</title>
<path fill="none" stroke="black" d="M294.85,-88.59C280.93,-79.13 263.26,-67.12 248.18,-56.87"/>
<polygon fill="black" stroke="black" points="249.88,-53.79 239.64,-51.07 245.95,-59.58 249.88,-53.79"/>
</g>
</g>
</svg>
