<?xml version="1.0" encoding="UTF-8" standalone="no"?>
<!DOCTYPE svg PUBLIC "-//W3C//DTD SVG 1.1//EN"
 "http://www.w3.org/Graphics/SVG/1.1/DTD/svg11.dtd">
<!-- Generated by graphviz version 3.0.0 (20220226.1711)
 -->
<!-- Title: G Pages: 1 -->
<svg width="616pt" height="188pt"
 viewBox="0.00 0.00 616.29 188.00" xmlns="http://www.w3.org/2000/svg" xmlns:xlink="http://www.w3.org/1999/xlink">
<g id="graph0" class="graph" transform="scale(1 1) rotate(0) translate(4 184)">
<title>G</title>
<polygon fill="white" stroke="transparent" points="-4,4 -4,-184 612.29,-184 612.29,4 -4,4"/>
<!-- ProcessPodcast -->
<g id="node1" class="node">
<title>ProcessPodcast</title>
<ellipse fill="none" stroke="black" cx="296.49" cy="-162" rx="64.04" ry="18"/>
<text text-anchor="middle" x="296.49" y="-158.9" font-family="sans-serif" font-size="12.00">ProcessPodcast</text>
</g>
<!-- ReleaseOnApplePodcasts -->
<g id="node2" class="node">
<title>ReleaseOnApplePodcasts</title>
<ellipse fill="none" stroke="black" cx="296.49" cy="-90" rx="97.03" ry="18"/>
<text text-anchor="middle" x="296.49" y="-86.9" font-family="sans-serif" font-size="12.00">ReleaseOnApplePodcasts</text>
</g>
<!-- ProcessPodcast&#45;&gt;ReleaseOnApplePodcasts -->
<g id="edge1" class="edge">
<title>ProcessPodcast&#45;&gt;ReleaseOnApplePodcasts</title>
<path fill="none" stroke="black" d="M296.49,-143.7C296.49,-135.98 296.49,-126.71 296.49,-118.11"/>
<polygon fill="black" stroke="black" points="299.99,-118.1 296.49,-108.1 292.99,-118.1 299.99,-118.1"/>
</g>
<!-- ReleaseOnTransistorFM -->
<g id="node3" class="node">
<title>ReleaseOnTransistorFM</title>
<ellipse fill="none" stroke="black" cx="90.49" cy="-90" rx="90.48" ry="18"/>
<text text-anchor="middle" x="90.49" y="-86.9" font-family="sans-serif" font-size="12.00">ReleaseOnTransistorFM</text>
</g>
<!-- ProcessPodcast&#45;&gt;ReleaseOnTransistorFM -->
<g id="edge2" class="edge">
<title>ProcessPodcast&#45;&gt;ReleaseOnTransistorFM</title>
<path fill="none" stroke="black" d="M257.26,-147.67C225.14,-136.75 179.38,-121.21 143.92,-109.16"/>
<polygon fill="black" stroke="black" points="144.81,-105.76 134.21,-105.86 142.56,-112.39 144.81,-105.76"/>
</g>
<!-- CreateAudioTranscription -->
<g id="node4" class="node">
<title>CreateAudioTranscription</title>
<ellipse fill="none" stroke="black" cx="505.49" cy="-90" rx="94.37" ry="18"/>
<text text-anchor="middle" x="505.49" y="-86.9" font-family="sans-serif" font-size="12.00">CreateAudioTranscription</text>
</g>
<!-- ProcessPodcast&#45;&gt;CreateAudioTranscription -->
<g id="edge3" class="edge">
<title>ProcessPodcast&#45;&gt;CreateAudioTranscription</title>
<path fill="none" stroke="black" d="M336.29,-147.67C368.77,-136.79 414.99,-121.31 450.92,-109.28"/>
<polygon fill="black" stroke="black" points="452.39,-112.48 460.76,-105.98 450.17,-105.84 452.39,-112.48"/>
</g>
<!-- TranslateAudioTranscription -->
<g id="node6" class="node">
<title>TranslateAudioTranscription</title>
<ellipse fill="none" stroke="black" cx="505.49" cy="-18" rx="102.61" ry="18"/>
<text text-anchor="middle" x="505.49" y="-14.9" font-family="sans-serif" font-size="12.00">TranslateAudioTranscription</text>
</g>
<!-- CreateAudioTranscription&#45;&gt;TranslateAudioTranscription -->
<g id="edge6" class="edge">
<title>CreateAudioTranscription&#45;&gt;TranslateAudioTranscription</title>
<path fill="none" stroke="black" d="M505.49,-71.7C505.49,-63.98 505.49,-54.71 505.49,-46.11"/>
<polygon fill="black" stroke="black" points="508.99,-46.1 505.49,-36.1 501.99,-46.1 508.99,-46.1"/>
</g>
<!-- OptimizePodcast -->
<g id="node5" class="node">
<title>OptimizePodcast</title>
<ellipse fill="none" stroke="black" cx="119.49" cy="-162" rx="65.74" ry="18"/>
<text text-anchor="middle" x="119.49" y="-158.9" font-family="sans-serif" font-size="12.00">OptimizePodcast</text>
</g>
<!-- OptimizePodcast&#45;&gt;ReleaseOnApplePodcasts -->
<g id="edge4" class="edge">
<title>OptimizePodcast&#45;&gt;ReleaseOnApplePodcasts</title>
<path fill="none" stroke="black" d="M155.31,-146.83C181.9,-136.32 218.47,-121.86 247.73,-110.29"/>
<polygon fill="black" stroke="black" points="249.33,-113.41 257.34,-106.48 246.76,-106.91 249.33,-113.41"/>
</g>
<!-- OptimizePodcast&#45;&gt;ReleaseOnTransistorFM -->
<g id="edge5" class="edge">
<title>OptimizePodcast&#45;&gt;ReleaseOnTransistorFM</title>
<path fill="none" stroke="black" d="M112.47,-144.05C109.21,-136.18 105.25,-126.62 101.59,-117.79"/>
<polygon fill="black" stroke="black" points="104.71,-116.17 97.65,-108.28 98.24,-118.85 104.71,-116.17"/>
</g>
</g>
</svg>
