<?xml version="1.0" encoding="UTF-8" standalone="no"?>
<!DOCTYPE svg PUBLIC "-//W3C//DTD SVG 1.1//EN"
 "http://www.w3.org/Graphics/SVG/1.1/DTD/svg11.dtd">
<!-- Generated by graphviz version 3.0.0 (20220226.1711)
 -->
<!-- Pages: 1 -->
<svg width="597pt" height="167pt"
 viewBox="0.00 0.00 597.00 167.00" xmlns="http://www.w3.org/2000/svg" xmlns:xlink="http://www.w3.org/1999/xlink">
<g id="graph0" class="graph" transform="scale(1 1) rotate(0) translate(4 163)">
<polygon fill="white" stroke="transparent" points="-4,4 -4,-163 593,-163 593,4 -4,4"/>
<g id="clust1" class="cluster">
<title>cluster1</title>
<polygon fill="none" stroke="black" points="8,-8 8,-151 156,-151 156,-8 8,-8"/>
<text text-anchor="middle" x="82" y="-139" font-family="sans-serif" font-size="10.00">User is pro user</text>
</g>
<g id="clust2" class="cluster">
<title>cluster2</title>
<polygon fill="none" stroke="black" points="176,-8 176,-151 581,-151 581,-8 176,-8"/>
<text text-anchor="middle" x="378.5" y="-139" font-family="sans-serif" font-size="10.00">User is not pro user</text>
</g>
<!-- process1 -->
<g id="node1" class="node">
<title>process1</title>
<ellipse fill="none" stroke="black" cx="82" cy="-106" rx="64.04" ry="18"/>
<text text-anchor="middle" x="82" y="-102.9" font-family="sans-serif" font-size="12.00">ProcessPodcast</text>
</g>
<!-- OptimizePodcast -->
<g id="node2" class="node">
<title>OptimizePodcast</title>
<ellipse fill="none" stroke="black" cx="82" cy="-34" rx="65.74" ry="18"/>
<text text-anchor="middle" x="82" y="-30.9" font-family="sans-serif" font-size="12.00">OptimizePodcast</text>
</g>
<!-- process1&#45;&gt;OptimizePodcast -->
<g id="edge1" class="edge">
<title>process1&#45;&gt;OptimizePodcast</title>
<path fill="none" stroke="black" d="M82,-87.7C82,-79.98 82,-70.71 82,-62.11"/>
<polygon fill="black" stroke="black" points="85.5,-62.1 82,-52.1 78.5,-62.1 85.5,-62.1"/>
</g>
<!-- process2 -->
<g id="node3" class="node">
<title>process2</title>
<ellipse fill="none" stroke="black" cx="388" cy="-106" rx="64.04" ry="18"/>
<text text-anchor="middle" x="388" y="-102.9" font-family="sans-serif" font-size="12.00">ProcessPodcast</text>
</g>
<!-- DowngradePodcastQuality -->
<g id="node4" class="node">
<title>DowngradePodcastQuality</title>
<ellipse fill="none" stroke="black" cx="282" cy="-34" rx="98.49" ry="18"/>
<text text-anchor="middle" x="282" y="-30.9" font-family="sans-serif" font-size="12.00">DowngradePodcastQuality</text>
</g>
<!-- process2&#45;&gt;DowngradePodcastQuality -->
<g id="edge2" class="edge">
<title>process2&#45;&gt;DowngradePodcastQuality</title>
<path fill="none" stroke="black" d="M363.95,-89.12C349.62,-79.65 331.22,-67.5 315.49,-57.11"/>
<polygon fill="black" stroke="black" points="317.34,-54.14 307.06,-51.55 313.48,-59.98 317.34,-54.14"/>
</g>
<!-- SendUpsellingEmail -->
<g id="node5" class="node">
<title>SendUpsellingEmail</title>
<ellipse fill="none" stroke="black" cx="495" cy="-34" rx="78.36" ry="18"/>
<text text-anchor="middle" x="495" y="-30.9" font-family="sans-serif" font-size="12.00">SendUpsellingEmail</text>
</g>
<!-- process2&#45;&gt;SendUpsellingEmail -->
<g id="edge3" class="edge">
<title>process2&#45;&gt;SendUpsellingEmail</title>
<path fill="none" stroke="black" d="M412.01,-89.29C426.67,-79.7 445.63,-67.3 461.72,-56.77"/>
<polygon fill="black" stroke="black" points="463.87,-59.55 470.33,-51.14 460.04,-53.69 463.87,-59.55"/>
</g>
</g>
</svg>
