<?xml version="1.0" encoding="UTF-8" standalone="no"?>
<!DOCTYPE svg PUBLIC "-//W3C//DTD SVG 1.1//EN"
 "http://www.w3.org/Graphics/SVG/1.1/DTD/svg11.dtd">
<!-- Generated by graphviz version 3.0.0 (20220226.1711)
 -->
<!-- Pages: 1 -->
<svg width="880pt" height="239pt"
 viewBox="0.00 0.00 880.00 239.00" xmlns="http://www.w3.org/2000/svg" xmlns:xlink="http://www.w3.org/1999/xlink">
<g id="graph0" class="graph" transform="scale(1 1) rotate(0) translate(4 235)">
<polygon fill="white" stroke="transparent" points="-4,4 -4,-235 876,-235 876,4 -4,4"/>
<g id="clust1" class="cluster">
<title>cluster1</title>
<polygon fill="none" stroke="black" points="8,-8 8,-223 426,-223 426,-8 8,-8"/>
<text text-anchor="middle" x="217" y="-211" font-family="sans-serif" font-size="10.00">User is pro user</text>
</g>
<g id="clust2" class="cluster">
<title>cluster2</title>
<polygon fill="none" stroke="black" points="446,-8 446,-223 864,-223 864,-8 446,-8"/>
<text text-anchor="middle" x="655" y="-211" font-family="sans-serif" font-size="10.00">User is regular user</text>
</g>
<!-- process1 -->
<g id="node1" class="node">
<title>process1</title>
<ellipse fill="none" stroke="black" cx="213" cy="-178" rx="64.04" ry="18"/>
<text text-anchor="middle" x="213" y="-174.9" font-family="sans-serif" font-size="12.00">ProcessPodcast</text>
</g>
<!-- OptimizePodcast -->
<g id="node4" class="node">
<title>OptimizePodcast</title>
<ellipse fill="none" stroke="black" cx="213" cy="-106" rx="65.74" ry="18"/>
<text text-anchor="middle" x="213" y="-102.9" font-family="sans-serif" font-size="12.00">OptimizePodcast</text>
</g>
<!-- process1&#45;&gt;OptimizePodcast -->
<g id="edge1" class="edge">
<title>process1&#45;&gt;OptimizePodcast</title>
<path fill="none" stroke="black" d="M213,-159.7C213,-151.98 213,-142.71 213,-134.11"/>
<polygon fill="black" stroke="black" points="216.5,-134.1 213,-124.1 209.5,-134.1 216.5,-134.1"/>
</g>
<!-- transistor1 -->
<g id="node2" class="node">
<title>transistor1</title>
<ellipse fill="none" stroke="black" cx="104" cy="-34" rx="88.06" ry="18"/>
<text text-anchor="middle" x="104" y="-30.9" font-family="sans-serif" font-size="12.00">PublishOnTransistorFM</text>
</g>
<!-- apple1 -->
<g id="node3" class="node">
<title>apple1</title>
<ellipse fill="none" stroke="black" cx="323" cy="-34" rx="94.6" ry="18"/>
<text text-anchor="middle" x="323" y="-30.9" font-family="sans-serif" font-size="12.00">PublishOnApplePodcasts</text>
</g>
<!-- OptimizePodcast&#45;&gt;transistor1 -->
<g id="edge2" class="edge">
<title>OptimizePodcast&#45;&gt;transistor1</title>
<path fill="none" stroke="black" d="M188.27,-89.12C173.43,-79.59 154.34,-67.33 138.09,-56.89"/>
<polygon fill="black" stroke="black" points="139.7,-53.77 129.39,-51.31 135.92,-59.66 139.7,-53.77"/>
</g>
<!-- OptimizePodcast&#45;&gt;apple1 -->
<g id="edge3" class="edge">
<title>OptimizePodcast&#45;&gt;apple1</title>
<path fill="none" stroke="black" d="M237.69,-89.29C252.65,-79.77 271.97,-67.47 288.44,-56.99"/>
<polygon fill="black" stroke="black" points="290.69,-59.71 297.25,-51.39 286.93,-53.8 290.69,-59.71"/>
</g>
<!-- process2 -->
<g id="node5" class="node">
<title>process2</title>
<ellipse fill="none" stroke="black" cx="664" cy="-178" rx="64.04" ry="18"/>
<text text-anchor="middle" x="664" y="-174.9" font-family="sans-serif" font-size="12.00">ProcessPodcast</text>
</g>
<!-- DowngradePodcastQuality -->
<g id="node8" class="node">
<title>DowngradePodcastQuality</title>
<ellipse fill="none" stroke="black" cx="558" cy="-106" rx="98.49" ry="18"/>
<text text-anchor="middle" x="558" y="-102.9" font-family="sans-serif" font-size="12.00">DowngradePodcastQuality</text>
</g>
<!-- process2&#45;&gt;DowngradePodcastQuality -->
<g id="edge4" class="edge">
<title>process2&#45;&gt;DowngradePodcastQuality</title>
<path fill="none" stroke="black" d="M639.95,-161.12C625.62,-151.65 607.22,-139.5 591.49,-129.11"/>
<polygon fill="black" stroke="black" points="593.34,-126.14 583.06,-123.55 589.48,-131.98 593.34,-126.14"/>
</g>
<!-- SendUpsellingEmail -->
<g id="node9" class="node">
<title>SendUpsellingEmail</title>
<ellipse fill="none" stroke="black" cx="771" cy="-106" rx="78.36" ry="18"/>
<text text-anchor="middle" x="771" y="-102.9" font-family="sans-serif" font-size="12.00">SendUpsellingEmail</text>
</g>
<!-- process2&#45;&gt;SendUpsellingEmail -->
<g id="edge5" class="edge">
<title>process2&#45;&gt;SendUpsellingEmail</title>
<path fill="none" stroke="black" d="M688.01,-161.29C702.67,-151.7 721.63,-139.3 737.72,-128.77"/>
<polygon fill="black" stroke="black" points="739.87,-131.55 746.33,-123.14 736.04,-125.69 739.87,-131.55"/>
</g>
<!-- transistor2 -->
<g id="node6" class="node">
<title>transistor2</title>
<ellipse fill="none" stroke="black" cx="542" cy="-34" rx="88.06" ry="18"/>
<text text-anchor="middle" x="542" y="-30.9" font-family="sans-serif" font-size="12.00">PublishOnTransistorFM</text>
</g>
<!-- apple2 -->
<g id="node7" class="node">
<title>apple2</title>
<ellipse fill="none" stroke="black" cx="761" cy="-34" rx="94.6" ry="18"/>
<text text-anchor="middle" x="761" y="-30.9" font-family="sans-serif" font-size="12.00">PublishOnApplePodcasts</text>
</g>
<!-- DowngradePodcastQuality&#45;&gt;transistor2 -->
<g id="edge6" class="edge">
<title>DowngradePodcastQuality&#45;&gt;transistor2</title>
<path fill="none" stroke="black" d="M554.04,-87.7C552.28,-79.98 550.16,-70.71 548.2,-62.11"/>
<polygon fill="black" stroke="black" points="551.55,-61.07 545.91,-52.1 544.73,-62.63 551.55,-61.07"/>
</g>
<!-- DowngradePodcastQuality&#45;&gt;apple2 -->
<g id="edge7" class="edge">
<title>DowngradePodcastQuality&#45;&gt;apple2</title>
<path fill="none" stroke="black" d="M602.05,-89.81C633.14,-79.09 674.97,-64.67 707.91,-53.31"/>
<polygon fill="black" stroke="black" points="709.07,-56.61 717.39,-50.04 706.79,-49.99 709.07,-56.61"/>
</g>
</g>
</svg>
