<?xml version="1.0" encoding="UTF-8" standalone="no"?>
<!DOCTYPE svg PUBLIC "-//W3C//DTD SVG 1.1//EN"
 "http://www.w3.org/Graphics/SVG/1.1/DTD/svg11.dtd">
<!-- Generated by graphviz version 2.44.1 (20200629.0846)
 -->
<!-- Title: G Pages: 1 -->
<svg width="209pt" height="260pt"
 viewBox="0.00 0.00 209.40 260.00" xmlns="http://www.w3.org/2000/svg" xmlns:xlink="http://www.w3.org/1999/xlink">
<g id="graph0" class="graph" transform="scale(1 1) rotate(0) translate(4 256)">
<title>G</title>
<polygon fill="white" stroke="transparent" points="-4,4 -4,-256 205.4,-256 205.4,4 -4,4"/>
<!-- JobB -->
<g id="node1" class="node">
<title>JobB</title>
<ellipse fill="#f95050" stroke="black" cx="100.7" cy="-162" rx="27.17" ry="18"/>
<text text-anchor="middle" x="100.7" y="-158.9" font-family="sans-serif" font-size="12.00" fill="white">JobB</text>
</g>
<!-- JobC -->
<g id="node2" class="node">
<title>JobC</title>
<ellipse fill="#ececec" stroke="black" cx="27.7" cy="-90" rx="27.9" ry="18"/>
<text text-anchor="middle" x="27.7" y="-86.9" font-family="sans-serif" font-size="12.00">JobC</text>
</g>
<!-- JobB&#45;&gt;JobC -->
<g id="edge5" class="edge">
<title>JobB&#45;&gt;JobC</title>
<path fill="none" stroke="black" d="M85.93,-146.83C75.61,-136.94 61.64,-123.55 49.98,-112.36"/>
<polygon fill="black" stroke="black" points="52.34,-109.78 42.7,-105.38 47.5,-114.83 52.34,-109.78"/>
</g>
<!-- JobD -->
<g id="node3" class="node">
<title>JobD</title>
<ellipse fill="#ececec" stroke="black" cx="100.7" cy="-90" rx="27.9" ry="18"/>
<text text-anchor="middle" x="100.7" y="-86.9" font-family="sans-serif" font-size="12.00">JobD</text>
</g>
<!-- JobB&#45;&gt;JobD -->
<g id="edge6" class="edge">
<title>JobB&#45;&gt;JobD</title>
<path fill="none" stroke="black" d="M100.7,-143.7C100.7,-135.98 100.7,-126.71 100.7,-118.11"/>
<polygon fill="black" stroke="black" points="104.2,-118.1 100.7,-108.1 97.2,-118.1 104.2,-118.1"/>
</g>
<!-- JobE -->
<g id="node4" class="node">
<title>JobE</title>
<ellipse fill="#ececec" stroke="black" cx="100.7" cy="-18" rx="27.17" ry="18"/>
<text text-anchor="middle" x="100.7" y="-14.9" font-family="sans-serif" font-size="12.00">JobE</text>
</g>
<!-- JobD&#45;&gt;JobE -->
<g id="edge4" class="edge">
<title>JobD&#45;&gt;JobE</title>
<path fill="none" stroke="black" d="M100.7,-71.7C100.7,-63.98 100.7,-54.71 100.7,-46.11"/>
<polygon fill="black" stroke="black" points="104.2,-46.1 100.7,-36.1 97.2,-46.1 104.2,-46.1"/>
</g>
<!-- JobA -->
<g id="node5" class="node">
<title>JobA</title>
<ellipse fill="none" stroke="black" cx="136.7" cy="-234" rx="27.17" ry="18"/>
<text text-anchor="middle" x="136.7" y="-230.9" font-family="sans-serif" font-size="12.00">JobA</text>
</g>
<!-- JobA&#45;&gt;JobB -->
<g id="edge1" class="edge">
<title>JobA&#45;&gt;JobB</title>
<path fill="none" stroke="black" d="M128.35,-216.76C123.99,-208.28 118.55,-197.71 113.66,-188.2"/>
<polygon fill="black" stroke="black" points="116.69,-186.44 109.01,-179.15 110.47,-189.64 116.69,-186.44"/>
</g>
<!-- JobF -->
<g id="node6" class="node">
<title>JobF</title>
<ellipse fill="none" stroke="black" cx="172.7" cy="-162" rx="27.17" ry="18"/>
<text text-anchor="middle" x="172.7" y="-158.9" font-family="sans-serif" font-size="12.00">JobF</text>
</g>
<!-- JobA&#45;&gt;JobF -->
<g id="edge2" class="edge">
<title>JobA&#45;&gt;JobF</title>
<path fill="none" stroke="black" d="M145.05,-216.76C149.41,-208.28 154.85,-197.71 159.74,-188.2"/>
<polygon fill="black" stroke="black" points="162.94,-189.64 164.4,-179.15 156.71,-186.44 162.94,-189.64"/>
</g>
<!-- JobG -->
<g id="node7" class="node">
<title>JobG</title>
<ellipse fill="none" stroke="black" cx="173.7" cy="-90" rx="27.9" ry="18"/>
<text text-anchor="middle" x="173.7" y="-86.9" font-family="sans-serif" font-size="12.00">JobG</text>
</g>
<!-- JobF&#45;&gt;JobG -->
<g id="edge3" class="edge">
<title>JobF&#45;&gt;JobG</title>
<path fill="none" stroke="black" d="M172.95,-143.7C173.06,-135.98 173.19,-126.71 173.31,-118.11"/>
<polygon fill="black" stroke="black" points="176.81,-118.15 173.46,-108.1 169.81,-118.05 176.81,-118.15"/>
</g>
</g>
</svg>
