<?xml version="1.0" encoding="UTF-8" standalone="no"?>
<!DOCTYPE svg PUBLIC "-//W3C//DTD SVG 1.1//EN"
 "http://www.w3.org/Graphics/SVG/1.1/DTD/svg11.dtd">
<!-- Generated by graphviz version 3.0.0 (20220226.1711)
 -->
<!-- Title: G Pages: 1 -->
<svg width="286pt" height="116pt"
 viewBox="0.00 0.00 285.89 116.00" xmlns="http://www.w3.org/2000/svg" xmlns:xlink="http://www.w3.org/1999/xlink">
<g id="graph0" class="graph" transform="scale(1 1) rotate(0) translate(4 112)">
<title>G</title>
<polygon fill="white" stroke="transparent" points="-4,4 -4,-112 281.89,-112 281.89,4 -4,4"/>
<!-- ProcessPodcast -->
<g id="node1" class="node">
<title>ProcessPodcast</title>
<ellipse fill="none" stroke="black" cx="64.02" cy="-90" rx="64.04" ry="18"/>
<text text-anchor="middle" x="64.02" y="-86.9" font-family="sans-serif" font-size="12.00">ProcessPodcast</text>
</g>
<!-- PublishPodcastOnTransistorFM -->
<g id="node2" class="node">
<title>PublishPodcastOnTransistorFM</title>
<ellipse fill="none" stroke="black" cx="138.02" cy="-18" rx="114.5" ry="18"/>
<text text-anchor="middle" x="138.02" y="-14.9" font-family="sans-serif" font-size="12.00">PublishPodcastOnTransistorFM</text>
</g>
<!-- ProcessPodcast&#45;&gt;PublishPodcastOnTransistorFM -->
<g id="edge1" class="edge">
<title>ProcessPodcast&#45;&gt;PublishPodcastOnTransistorFM</title>
<path fill="none" stroke="black" d="M81.56,-72.41C90.82,-63.65 102.36,-52.73 112.59,-43.06"/>
<polygon fill="black" stroke="black" points="115.24,-45.37 120.1,-35.96 110.43,-40.29 115.24,-45.37"/>
</g>
<!-- OptimizePodcast -->
<g id="node3" class="node">
<title>OptimizePodcast</title>
<ellipse fill="none" stroke="black" cx="212.02" cy="-90" rx="65.74" ry="18"/>
<text text-anchor="middle" x="212.02" y="-86.9" font-family="sans-serif" font-size="12.00">OptimizePodcast</text>
</g>
<!-- OptimizePodcast&#45;&gt;PublishPodcastOnTransistorFM -->
<g id="edge2" class="edge">
<title>OptimizePodcast&#45;&gt;PublishPodcastOnTransistorFM</title>
<path fill="none" stroke="black" d="M194.48,-72.41C185.22,-63.65 173.68,-52.73 163.45,-43.06"/>
<polygon fill="black" stroke="black" points="165.62,-40.29 155.95,-35.96 160.81,-45.37 165.62,-40.29"/>
</g>
</g>
</svg>
