<?xml version="1.0" encoding="UTF-8" standalone="no"?>
<!DOCTYPE svg PUBLIC "-//W3C//DTD SVG 1.1//EN"
 "http://www.w3.org/Graphics/SVG/1.1/DTD/svg11.dtd">
<!-- Generated by graphviz version 3.0.0 (20220226.1711)
 -->
<!-- Title: G Pages: 1 -->
<svg width="608pt" height="260pt"
 viewBox="0.00 0.00 608.45 260.00" xmlns="http://www.w3.org/2000/svg" xmlns:xlink="http://www.w3.org/1999/xlink">
<g id="graph0" class="graph" transform="scale(1 1) rotate(0) translate(4 256)">
<title>G</title>
<polygon fill="white" stroke="transparent" points="-4,4 -4,-256 604.45,-256 604.45,4 -4,4"/>
<!-- ProcessPodcast -->
<g id="node1" class="node">
<title>ProcessPodcast</title>
<ellipse fill="none" stroke="black" cx="303.26" cy="-234" rx="64.04" ry="18"/>
<text text-anchor="middle" x="303.26" y="-230.9" font-family="sans-serif" font-size="12.00">ProcessPodcast</text>
</g>
<!-- ReleaseOnApplePodcasts -->
<g id="node2" class="node">
<title>ReleaseOnApplePodcasts</title>
<ellipse fill="none" stroke="black" cx="97.26" cy="-162" rx="97.03" ry="18"/>
<text text-anchor="middle" x="97.26" y="-158.9" font-family="sans-serif" font-size="12.00">ReleaseOnApplePodcasts</text>
</g>
<!-- ProcessPodcast&#45;&gt;ReleaseOnApplePodcasts -->
<g id="edge1" class="edge">
<title>ProcessPodcast&#45;&gt;ReleaseOnApplePodcasts</title>
<path fill="none" stroke="black" d="M264.03,-219.67C232.13,-208.83 186.76,-193.41 151.4,-181.4"/>
<polygon fill="black" stroke="black" points="152.31,-178.01 141.71,-178.1 150.06,-184.64 152.31,-178.01"/>
</g>
<!-- ReleaseOnTransistorFM -->
<g id="node3" class="node">
<title>ReleaseOnTransistorFM</title>
<ellipse fill="none" stroke="black" cx="303.26" cy="-162" rx="90.48" ry="18"/>
<text text-anchor="middle" x="303.26" y="-158.9" font-family="sans-serif" font-size="12.00">ReleaseOnTransistorFM</text>
</g>
<!-- ProcessPodcast&#45;&gt;ReleaseOnTransistorFM -->
<g id="edge2" class="edge">
<title>ProcessPodcast&#45;&gt;ReleaseOnTransistorFM</title>
<path fill="none" stroke="black" d="M303.26,-215.7C303.26,-207.98 303.26,-198.71 303.26,-190.11"/>
<polygon fill="black" stroke="black" points="306.76,-190.1 303.26,-180.1 299.76,-190.1 306.76,-190.1"/>
</g>
<!-- CreateAudioTranscription -->
<g id="node4" class="node">
<title>CreateAudioTranscription</title>
<ellipse fill="none" stroke="black" cx="506.26" cy="-162" rx="94.37" ry="18"/>
<text text-anchor="middle" x="506.26" y="-158.9" font-family="sans-serif" font-size="12.00">CreateAudioTranscription</text>
</g>
<!-- ProcessPodcast&#45;&gt;CreateAudioTranscription -->
<g id="edge3" class="edge">
<title>ProcessPodcast&#45;&gt;CreateAudioTranscription</title>
<path fill="none" stroke="black" d="M342.4,-219.5C373.89,-208.65 418.45,-193.28 453.16,-181.31"/>
<polygon fill="black" stroke="black" points="454.35,-184.6 462.67,-178.03 452.07,-177.98 454.35,-184.6"/>
</g>
<!-- SendTweetAboutNewPodcast -->
<g id="node6" class="node">
<title>SendTweetAboutNewPodcast</title>
<ellipse fill="none" stroke="black" cx="303.26" cy="-18" rx="108.19" ry="18"/>
<text text-anchor="middle" x="303.26" y="-14.9" font-family="sans-serif" font-size="12.00">SendTweetAboutNewPodcast</text>
</g>
<!-- ReleaseOnApplePodcasts&#45;&gt;SendTweetAboutNewPodcast -->
<g id="edge9" class="edge">
<title>ReleaseOnApplePodcasts&#45;&gt;SendTweetAboutNewPodcast</title>
<path fill="none" stroke="black" d="M98.44,-143.79C100.73,-123.81 107.46,-91.16 127.26,-72 148.39,-51.55 177.11,-38.96 205.21,-31.21"/>
<polygon fill="black" stroke="black" points="206.3,-34.55 215.12,-28.67 204.56,-27.77 206.3,-34.55"/>
</g>
<!-- NotifySubscribers -->
<g id="node7" class="node">
<title>NotifySubscribers</title>
<ellipse fill="none" stroke="black" cx="204.26" cy="-90" rx="68.16" ry="18"/>
<text text-anchor="middle" x="204.26" y="-86.9" font-family="sans-serif" font-size="12.00">NotifySubscribers</text>
</g>
<!-- ReleaseOnApplePodcasts&#45;&gt;NotifySubscribers -->
<g id="edge8" class="edge">
<title>ReleaseOnApplePodcasts&#45;&gt;NotifySubscribers</title>
<path fill="none" stroke="black" d="M122.35,-144.59C136.94,-135.04 155.51,-122.9 171.27,-112.58"/>
<polygon fill="black" stroke="black" points="173.25,-115.47 179.7,-107.07 169.42,-109.61 173.25,-115.47"/>
</g>
<!-- ReleaseOnTransistorFM&#45;&gt;SendTweetAboutNewPodcast -->
<g id="edge6" class="edge">
<title>ReleaseOnTransistorFM&#45;&gt;SendTweetAboutNewPodcast</title>
<path fill="none" stroke="black" d="M303.26,-143.87C303.26,-119.67 303.26,-75.21 303.26,-46.39"/>
<polygon fill="black" stroke="black" points="306.76,-46.19 303.26,-36.19 299.76,-46.19 306.76,-46.19"/>
</g>
<!-- ReleaseOnTransistorFM&#45;&gt;NotifySubscribers -->
<g id="edge7" class="edge">
<title>ReleaseOnTransistorFM&#45;&gt;NotifySubscribers</title>
<path fill="none" stroke="black" d="M280.05,-144.59C266.67,-135.13 249.69,-123.12 235.19,-112.87"/>
<polygon fill="black" stroke="black" points="237.17,-109.98 226.99,-107.07 233.13,-115.7 237.17,-109.98"/>
</g>
<!-- TranslateAudioTranscription -->
<g id="node8" class="node">
<title>TranslateAudioTranscription</title>
<ellipse fill="none" stroke="black" cx="470.26" cy="-90" rx="102.61" ry="18"/>
<text text-anchor="middle" x="470.26" y="-86.9" font-family="sans-serif" font-size="12.00">TranslateAudioTranscription</text>
</g>
<!-- CreateAudioTranscription&#45;&gt;TranslateAudioTranscription -->
<g id="edge10" class="edge">
<title>CreateAudioTranscription&#45;&gt;TranslateAudioTranscription</title>
<path fill="none" stroke="black" d="M497.55,-144.05C493.41,-136.01 488.37,-126.2 483.75,-117.23"/>
<polygon fill="black" stroke="black" points="486.83,-115.57 479.15,-108.28 480.61,-118.77 486.83,-115.57"/>
</g>
<!-- OptimizePodcast -->
<g id="node5" class="node">
<title>OptimizePodcast</title>
<ellipse fill="none" stroke="black" cx="126.26" cy="-234" rx="65.74" ry="18"/>
<text text-anchor="middle" x="126.26" y="-230.9" font-family="sans-serif" font-size="12.00">OptimizePodcast</text>
</g>
<!-- OptimizePodcast&#45;&gt;ReleaseOnApplePodcasts -->
<g id="edge4" class="edge">
<title>OptimizePodcast&#45;&gt;ReleaseOnApplePodcasts</title>
<path fill="none" stroke="black" d="M119.24,-216.05C115.98,-208.18 112.02,-198.62 108.36,-189.79"/>
<polygon fill="black" stroke="black" points="111.48,-188.17 104.42,-180.28 105.01,-190.85 111.48,-188.17"/>
</g>
<!-- OptimizePodcast&#45;&gt;ReleaseOnTransistorFM -->
<g id="edge5" class="edge">
<title>OptimizePodcast&#45;&gt;ReleaseOnTransistorFM</title>
<path fill="none" stroke="black" d="M162.08,-218.83C188.76,-208.28 225.49,-193.76 254.8,-182.17"/>
<polygon fill="black" stroke="black" points="256.41,-185.29 264.43,-178.36 253.84,-178.78 256.41,-185.29"/>
</g>
<!-- TranslateAudioTranscription&#45;&gt;SendTweetAboutNewPodcast -->
<g id="edge11" class="edge">
<title>TranslateAudioTranscription&#45;&gt;SendTweetAboutNewPodcast</title>
<path fill="none" stroke="black" d="M432.37,-73.12C408.11,-62.95 376.45,-49.68 350.55,-38.82"/>
<polygon fill="black" stroke="black" points="351.87,-35.58 341.3,-34.94 349.17,-42.04 351.87,-35.58"/>
</g>
</g>
</svg>
