<?xml version="1.0" encoding="UTF-8" standalone="no"?>
<!DOCTYPE svg PUBLIC "-//W3C//DTD SVG 1.1//EN"
 "http://www.w3.org/Graphics/SVG/1.1/DTD/svg11.dtd">
<!-- Generated by graphviz version 2.44.1 (20200629.0846)
 -->
<!-- Title: G Pages: 1 -->
<svg width="424pt" height="312pt"
 viewBox="0.00 0.00 424.00 312.00" xmlns="http://www.w3.org/2000/svg" xmlns:xlink="http://www.w3.org/1999/xlink">
<g id="graph0" class="graph" transform="scale(1 1) rotate(0) translate(4 308)">
<title>G</title>
<polygon fill="white" stroke="transparent" points="-4,4 -4,-308 420,-308 420,4 -4,4"/>
<g id="clust1" class="cluster">
<title>cluster_publish</title>
<polygon fill="none" stroke="black" stroke-dasharray="1,5" points="8,-8 8,-166 408,-166 408,-8 8,-8"/>
<text text-anchor="middle" x="57" y="-152.4" font-family="sans-serif" font-size="12.00">PublishPodast&#45;</text>
<text text-anchor="middle" x="57" y="-139.4" font-family="sans-serif" font-size="12.00">Workflow</text>
</g>
<g id="clust2" class="cluster">
<title>cluster_encode</title>
<polygon fill="none" stroke="black" stroke-dasharray="1,5" points="76,-174 76,-260 345,-260 345,-174 76,-174"/>
<text text-anchor="middle" x="128.5" y="-246.4" font-family="sans-serif" font-size="12.00">EncodePodcast&#45;</text>
<text text-anchor="middle" x="128.5" y="-233.4" font-family="sans-serif" font-size="12.00">Workflow</text>
</g>
<!-- ProcessPodcast -->
<g id="node1" class="node">
<title>ProcessPodcast</title>
<ellipse fill="none" stroke="black" cx="211" cy="-286" rx="64.04" ry="18"/>
<text text-anchor="middle" x="211" y="-282.9" font-family="sans-serif" font-size="12.00">ProcessPodcast</text>
</g>
<!-- EncodeAsMp3 -->
<g id="node2" class="node">
<title>EncodeAsMp3</title>
<ellipse fill="none" stroke="black" cx="279" cy="-200" rx="58.46" ry="18"/>
<text text-anchor="middle" x="279" y="-196.9" font-family="sans-serif" font-size="12.00">EncodeAsMp3</text>
</g>
<!-- ProcessPodcast&#45;&gt;EncodeAsMp3 -->
<g id="edge1" class="edge">
<title>ProcessPodcast&#45;&gt;EncodeAsMp3</title>
<path fill="none" stroke="black" d="M224.76,-268C234.6,-255.85 247.98,-239.32 258.99,-225.71"/>
<polygon fill="black" stroke="black" points="261.92,-227.66 265.49,-217.69 256.48,-223.26 261.92,-227.66"/>
</g>
<!-- EncodeAsWav -->
<g id="node3" class="node">
<title>EncodeAsWav</title>
<ellipse fill="none" stroke="black" cx="143" cy="-200" rx="59.19" ry="18"/>
<text text-anchor="middle" x="143" y="-196.9" font-family="sans-serif" font-size="12.00">EncodeAsWav</text>
</g>
<!-- ProcessPodcast&#45;&gt;EncodeAsWav -->
<g id="edge2" class="edge">
<title>ProcessPodcast&#45;&gt;EncodeAsWav</title>
<path fill="none" stroke="black" d="M197.24,-268C187.4,-255.85 174.02,-239.32 163.01,-225.71"/>
<polygon fill="black" stroke="black" points="165.52,-223.26 156.51,-217.69 160.08,-227.66 165.52,-223.26"/>
</g>
<!-- PublishOnTransistorFM -->
<g id="node4" class="node">
<title>PublishOnTransistorFM</title>
<ellipse fill="none" stroke="black" cx="312" cy="-106" rx="88.06" ry="18"/>
<text text-anchor="middle" x="312" y="-102.9" font-family="sans-serif" font-size="12.00">PublishOnTransistorFM</text>
</g>
<!-- EncodeAsMp3&#45;&gt;PublishOnTransistorFM -->
<g id="edge6" class="edge">
<title>EncodeAsMp3&#45;&gt;PublishOnTransistorFM</title>
<path fill="none" stroke="black" d="M285.21,-181.7C290.05,-168.2 296.85,-149.23 302.4,-133.78"/>
<polygon fill="black" stroke="black" points="305.74,-134.82 305.82,-124.23 299.15,-132.46 305.74,-134.82"/>
</g>
<!-- PublishOnApplePodcasts -->
<g id="node5" class="node">
<title>PublishOnApplePodcasts</title>
<ellipse fill="none" stroke="black" cx="111" cy="-106" rx="94.6" ry="18"/>
<text text-anchor="middle" x="111" y="-102.9" font-family="sans-serif" font-size="12.00">PublishOnApplePodcasts</text>
</g>
<!-- EncodeAsMp3&#45;&gt;PublishOnApplePodcasts -->
<g id="edge5" class="edge">
<title>EncodeAsMp3&#45;&gt;PublishOnApplePodcasts</title>
<path fill="none" stroke="black" d="M249.88,-184.29C238.9,-178.67 226.32,-172.13 215,-166 192.52,-153.83 167.6,-139.72 147.79,-128.35"/>
<polygon fill="black" stroke="black" points="149.49,-125.29 139.08,-123.33 146,-131.35 149.49,-125.29"/>
</g>
<!-- EncodeAsWav&#45;&gt;PublishOnTransistorFM -->
<g id="edge8" class="edge">
<title>EncodeAsWav&#45;&gt;PublishOnTransistorFM</title>
<path fill="none" stroke="black" d="M176.01,-184.84C188.39,-179.28 202.49,-172.64 215,-166 236.54,-154.56 259.93,-140.39 278.33,-128.81"/>
<polygon fill="black" stroke="black" points="280.37,-131.66 286.94,-123.35 276.62,-125.75 280.37,-131.66"/>
</g>
<!-- EncodeAsWav&#45;&gt;PublishOnApplePodcasts -->
<g id="edge7" class="edge">
<title>EncodeAsWav&#45;&gt;PublishOnApplePodcasts</title>
<path fill="none" stroke="black" d="M136.98,-181.7C132.29,-168.2 125.69,-149.23 120.31,-133.78"/>
<polygon fill="black" stroke="black" points="123.58,-132.52 116.99,-124.23 116.97,-134.82 123.58,-132.52"/>
</g>
<!-- NotifySubscribers -->
<g id="node6" class="node">
<title>NotifySubscribers</title>
<ellipse fill="none" stroke="black" cx="211" cy="-34" rx="68.16" ry="18"/>
<text text-anchor="middle" x="211" y="-30.9" font-family="sans-serif" font-size="12.00">NotifySubscribers</text>
</g>
<!-- PublishOnTransistorFM&#45;&gt;NotifySubscribers -->
<g id="edge3" class="edge">
<title>PublishOnTransistorFM&#45;&gt;NotifySubscribers</title>
<path fill="none" stroke="black" d="M288.32,-88.59C274.67,-79.13 257.34,-67.12 242.55,-56.87"/>
<polygon fill="black" stroke="black" points="244.4,-53.89 234.18,-51.07 240.41,-59.64 244.4,-53.89"/>
</g>
<!-- PublishOnApplePodcasts&#45;&gt;NotifySubscribers -->
<g id="edge4" class="edge">
<title>PublishOnApplePodcasts&#45;&gt;NotifySubscribers</title>
<path fill="none" stroke="black" d="M134.7,-88.41C148.22,-78.95 165.32,-66.97 179.91,-56.76"/>
<polygon fill="black" stroke="black" points="181.97,-59.59 188.16,-50.99 177.96,-53.86 181.97,-59.59"/>
</g>
</g>
</svg>
